<?xml version="1.0" encoding="UTF-8" standalone="no"?>
<svg
   xmlns:dc="http://purl.org/dc/elements/1.1/"
   xmlns:cc="http://creativecommons.org/ns#"
   xmlns:rdf="http://www.w3.org/1999/02/22-rdf-syntax-ns#"
   xmlns:svg="http://www.w3.org/2000/svg"
   xmlns="http://www.w3.org/2000/svg"
   xmlns:sodipodi="http://sodipodi.sourceforge.net/DTD/sodipodi-0.dtd"
   xmlns:inkscape="http://www.inkscape.org/namespaces/inkscape"
   version="1.1"
   id="Layer_1"
   x="0px"
   y="0px"
   width="1629.131"
   viewBox="0 0 1629.131 805.21997"
   enable-background="new 0 0 1008 1024"
   xml:space="preserve"
   sodipodi:docname="agujafilmica.svg"
   inkscape:version="1.0.1 (3bc2e813f5, 2020-09-07)"
   inkscape:export-filename="C:\Users\lupec\Downloads\agujafilmicainskapeWhite.png"
   inkscape:export-xdpi="96"
   inkscape:export-ydpi="96"
   height="805.21997"><metadata
   id="metadata109"><rdf:RDF><cc:Work
       rdf:about=""><dc:format>image/svg+xml</dc:format><dc:type
         rdf:resource="http://purl.org/dc/dcmitype/StillImage" /><dc:title /></cc:Work></rdf:RDF></metadata><defs
   id="defs107" /><sodipodi:namedview
   pagecolor="#732b48"
   bordercolor="#666666"
   borderopacity="1"
   objecttolerance="10"
   gridtolerance="10"
   guidetolerance="10"
   inkscape:pageopacity="0"
   inkscape:pageshadow="2"
   inkscape:window-width="1920"
   inkscape:window-height="992"
   id="namedview105"
   showgrid="false"
   inkscape:zoom="0.16411531"
   inkscape:cx="180.32277"
   inkscape:cy="359.70673"
   inkscape:window-x="-8"
   inkscape:window-y="-8"
   inkscape:window-maximized="1"
   inkscape:current-layer="Layer_1"
   inkscape:document-rotation="0" />
<path
   fill="#000000"
   opacity="1"
   stroke="none"
   d="m 553.43288,382.00997 c -0.47126,-2.48224 -1.3938,-4.50168 -0.77234,-7.1593 4.03784,1.18787 6.35889,4.18274 8.58142,7.11139 15.8996,20.95123 35.45764,38.38531 54.40125,56.37897 6.95941,6.61041 9.90045,13.03723 7.26348,20.63055 -3.35235,-0.58368 -5.22448,-3.24609 -7.36499,-5.40778 -11.14337,-11.25299 -22.38446,-22.38165 -35.3515,-31.60144 -3.62244,-2.57562 -7.2088,-3.85424 -11.40484,-1.35107 0.2619,2.79645 2.01342,3.91284 4.22741,4.4339 5.99109,1.40979 11.23346,4.36206 15.71234,8.39844 10.87885,9.80383 20.70807,20.7304 32.02332,30.08343 1.90588,1.57538 2.45807,3.9079 2.32941,6.35303 -0.95655,18.17584 -5.37854,35.46966 -13.25995,51.87298 -1.36957,2.85047 -2.80512,5.67231 -4.30487,8.45636 -2.92505,5.43 -4.31903,5.81098 -8.93982,1.50525 -4.13257,-3.85083 -7.92908,-8.08404 -11.67237,-12.32635 -7.06604,-8.00818 -14.87146,-15.28101 -22.38385,-22.84485 -1.16803,-1.17609 -2.52032,-2.17877 -3.84185,-3.19037 -1.60621,-1.22961 -3.37244,-2.72174 -5.21961,-0.6004 -1.79175,2.05774 -0.14709,3.76129 1.14685,5.2409 4.16736,4.76526 8.36591,9.50592 12.65723,14.15949 6.54993,7.10303 13.15637,14.15472 19.79858,21.17163 4.46979,4.72186 8.8913,9.45288 10.77613,15.58893 1.06646,0.53961 1.81243,0.22668 2.05011,-0.35004 3.67498,-8.91614 10.61474,-16.11841 13.4284,-25.46216 1.23889,-4.11438 1.57715,-8.47558 4.4657,-12.05108 1.99396,-2.46808 3.65857,-3.7862 6.37201,-0.99768 1.29516,1.33099 3.04852,1.99109 4.96741,2.0794 2.19824,0.1012 3.34326,-0.9978 3.89874,-3.05896 0.51092,-1.89593 0.78284,-3.60199 -1.2522,-4.80462 -2.7641,-1.63355 -5.76227,-2.49964 -9.5036,-2.73688 0.0692,-5.37366 0.67786,-10.39362 3.62567,-15.32648 2.13977,1.37732 3.73511,2.53314 5.4505,3.46875 1.4408,0.78583 3.09125,1.72687 4.41583,-0.20569 1.06733,-1.55707 0.93311,-3.24988 -0.25323,-4.63214 -0.83917,-0.97784 -1.9364,-2.15033 -3.08612,-2.37396 -5.1828,-1.00842 -5.9419,-4.52191 -5.54791,-8.89673 0.48388,-5.37347 -0.63715,-10.57416 -1.59986,-15.81555 -0.40655,-2.21326 -0.5169,-4.61249 0.46497,-6.80023 8.32782,1.29962 17.71808,11.56836 19.59479,21.8526 3.17486,17.3974 1.41021,34.39984 -4.54859,51.05395 -10.49658,29.33679 -26.89654,55.22492 -45.28595,80.16016 -10.32788,14.00409 -21.49707,27.23498 -33.5769,39.58722 -13.71796,14.0274 -27.94739,27.59125 -43.23395,40.02887 -24.98468,20.32843 -50.89801,39.32312 -78.59045,55.75604 -35.3711,20.98944 -72.85633,37.3996 -112.15384,49.50787 -23.37958,7.20368 -47.15903,12.91657 -71.57282,15.34565 -29.8963,2.9746 -59.06134,-0.99799 -87.7113,-9.71674 -26.25204,-7.98895 -46.91953,-23.92712 -64.34958,-44.57971 -1.46167,-1.73194 -3.21304,-3.44214 -2.66553,-6.15869 2.13239,-1.2959 3.52323,0.36602 4.88434,1.32739 10.05509,7.10217 19.81253,14.61267 30.10819,21.39331 4.14007,2.72674 7.89459,5.29584 13.25064,4.42438 3.35485,-0.54584 6.06176,1.19854 7.85751,4.24493 1.61685,2.74292 3.5401,5.23547 6.5174,6.71454 2.57403,1.27881 4.50695,0.73779 5.7806,-1.84564 1.16556,-2.36426 1.16703,-4.5824 -1.36807,-6.05573 -1.28082,-0.74438 -2.71432,-1.29529 -4.1445,-1.70331 -26.91251,-7.67919 -48.97705,-22.65216 -66.881616,-44.05041 -8.67478,-10.36755 -18.4476,-19.67853 -28.65579,-28.53272 -6.72634,-5.83416 -12.40535,-12.5578 -16.84838,-20.28747 -1.84338,-3.20691 -3.895,-6.09033 -7.23457,-8.03436 -2.51167,-1.46204 -3.65508,-4.2807 -4.99632,-6.75983 -2.18381,-4.03644 -0.98072,-4.61859 2.89134,-6.95361 5.66435,-3.4159 9.75403,-0.93286 14.49203,1.43042 18.7878,9.37109 37.70826,18.41857 58.766576,21.69519 19.82449,3.08465 39.74588,3.75048 59.71755,2.24096 21.76935,-1.64538 43.0777,-5.8247 64.17316,-11.51989 34.582,-9.33625 67.55158,-22.82068 99.35025,-38.97412 42.04749,-21.35987 80.77527,-47.6966 115.836,-79.49787 23.56079,-21.37054 45.45508,-44.10565 63.37537,-70.37653 14.38275,-21.08483 27.28302,-43.08422 34.01172,-68.04986 2.8601,-10.61206 2.62225,-21.40479 0.91284,-32.60663 M 200.28307,756.40871 c -5.5091,-12.46356 -12.5687,-24.17511 -17.69641,-36.83728 -1.9936,-4.92285 -6.31833,-7.01532 -9.34458,-4.945 -4.34286,2.97119 -0.60687,6.04162 0.68485,8.59307 8.18005,16.15711 16.91748,32.03846 24.81759,48.32764 3.07202,6.33417 9.53562,10.23017 11.0156,17.79267 0.65274,3.33557 5.43475,3.84674 8.56076,1.80499 2.92975,-1.91339 1.89395,-4.99585 0.60495,-7.63043 -0.88297,-1.80451 -2.05484,-3.73444 -3.88071,-4.43549 -4.53583,-1.74158 -6.33267,-5.60846 -8.24396,-9.49097 -2.05456,-4.17364 -4.11554,-8.34423 -6.51809,-13.1792 M 490.66878,573.11623 c -2.10559,-1.68847 -4.24341,-3.71417 -6.97894,-1.23321 -2.74115,2.48608 -0.94281,4.99579 0.52569,7.13794 7.24909,10.57385 14.52594,21.13183 21.99487,31.55078 5.23523,7.30298 10.15857,14.86133 16.29584,21.47925 1.66126,1.79132 3.36157,4.14599 6.24835,1.83813 2.43897,-1.94989 1.96216,-3.9964 0.58027,-6.57098 -10.47278,-19.51099 -25.26642,-35.92676 -38.66608,-54.20191 m -91.12744,94.16028 c 6.70758,10.73047 13.39111,21.47614 20.14325,32.17853 1.32067,2.09332 2.49957,4.38306 4.7782,5.672 2.03997,1.15393 4.23632,1.27044 6.15197,-0.0718 2.09039,-1.46466 0.61804,-3.36701 0.0557,-4.96777 -1.88459,-5.36463 -4.56916,-10.33698 -7.64942,-15.11542 -6.94525,-10.77429 -13.83404,-21.58496 -20.73602,-32.38709 -2.05957,-3.22351 -3.89545,-6.59912 -6.66174,-9.32306 -1.84626,-1.81799 -3.96125,-2.67205 -6.29523,-1.24792 -2.63544,1.60803 -1.27789,3.95642 -0.3595,5.74628 3.2663,6.36609 6.7702,12.61029 10.57282,19.51623 m -80.48539,81.45123 c -8.64236,-16.70965 -17.28826,-33.41754 -25.92288,-50.13116 -1.15457,-2.23492 -2.41946,-4.37494 -4.43731,-5.96112 -1.16782,-0.91809 -2.39768,-0.98035 -3.74259,-0.37689 -1.59955,0.71795 -1.57809,2.00738 -1.22574,3.3659 0.58258,2.24616 1.03235,4.56049 1.91626,6.68903 4.60752,11.09485 10.70383,21.43481 16.46594,31.93939 3.44007,6.27136 6.93668,12.51929 10.6615,18.62299 1.42582,2.33636 3.41034,5.31067 6.75086,3.19232 2.93347,-1.86029 0.70694,-4.43079 -0.46604,-7.34046 M 82.306814,688.49508 c -6.2178,-7.26447 -15.1872,-10.30097 -23.38348,-16.77661 1.67558,9.33954 16.07292,20.91534 25.78732,22.01312 -0.71878,-1.64691 -1.37442,-3.14917 -2.40384,-5.23651 m 283.000026,57.33374 c -2.35516,4.09106 -0.73157,9.45813 3.51825,11.63006 3.05377,1.5608 7.86401,-0.57025 9.45581,-4.18896 1.3222,-3.00562 -1.13831,-7.58801 -4.90875,-9.17731 -2.78095,-1.17224 -5.16858,-0.1217 -8.06531,1.73621 m 73.12781,-38.94946 c -2.43122,1.05426 -4.77759,2.49963 -3.84143,5.52093 1.15198,3.71777 3.27698,7.18543 7.27343,8.26056 2.77546,0.7467 5.04847,-1.15796 6.74176,-3.38379 0.8302,-1.09131 1.21509,-2.26251 0.78302,-3.72375 -1.18811,-4.01746 -5.67138,-7.1131 -10.95678,-6.67395 M 328.24049,660.39547 c 0.8256,0.80713 1.54657,1.77484 2.4954,2.39276 3.54538,2.30841 6.70993,1.17615 9.42074,-1.50696 2.31592,-2.29223 2.54981,-4.9928 0.50196,-7.62256 -2.40808,-3.09222 -5.41333,-4.34411 -9.17426,-2.42584 -3.56052,1.81604 -5.32871,4.43726 -3.24384,9.1626 m 17.16608,107.31012 c 3.27332,-0.90149 6.78369,-2.00165 6.93195,-5.97571 0.13501,-3.61975 -2.50666,-5.93353 -5.67652,-7.45495 -3.04107,-1.45972 -5.42981,-0.1352 -7.61059,1.86401 -1.31116,1.2019 -2.00208,2.66864 -1.18622,4.43854 1.45654,3.15954 2.82538,6.42999 7.54138,7.12811 m 56.49951,-32.70819 c -2.64587,-2.67487 -5.43518,-4.49512 -9.01922,-1.49414 -2.37091,1.98535 -4.39575,4.00427 -2.89154,7.58246 1.84332,4.38458 5.51263,6.20465 9.54034,4.4635 3.78845,-1.6377 4.76526,-5.10614 2.37042,-10.55182 m 89.54023,-54.67401 c -3.02796,-2.89887 -6.38361,-4.68097 -9.91889,-1.12909 -2.54071,2.55279 -3.34228,5.80523 -0.65247,8.89844 2.73359,3.14373 6.04926,3.95794 9.70991,1.58935 3.68664,-2.38532 3.99731,-5.38299 0.86145,-9.3587 m -70.19751,53.49304 c 1.12908,-0.6568 2.39526,-1.15741 3.35876,-2.00287 1.99445,-1.75037 3.05164,-4.01306 1.98676,-6.63373 -1.18165,-2.90808 -3.40607,-4.89966 -6.53003,-5.49451 -2.65442,-0.50537 -4.34583,1.31946 -5.71289,3.19617 -2.67542,3.67291 0.28796,8.8681 6.8974,10.93494 m 39.71032,-40.29566 c -3.74548,2.25104 -4.94171,5.42542 -2.73688,9.2591 1.89985,3.30328 5.0777,4.51166 8.52424,2.68616 3.16046,-1.67402 5.05749,-4.5802 3.63769,-8.31257 -1.52136,-3.99914 -4.46667,-5.64569 -9.42505,-3.63269 m -107.20471,-51.125 c -0.15784,4.26526 2.56848,8.15741 5.86603,8.37458 3.00665,0.19799 7.93011,-3.57569 8.16254,-6.25635 0.27197,-3.13666 -3.45826,-6.9046 -7.07227,-7.16193 -3.34137,-0.23779 -5.16791,1.79676 -6.9563,5.0437 m 24.79449,-16.15551 c -2.69445,3.88287 0.1963,6.45727 2.24604,9.13159 1.43829,1.87646 3.38025,1.81995 5.31531,0.6947 2.46698,-1.43469 4.90881,-2.95514 4.67761,-6.3385 -0.21033,-3.07727 -2.08795,-5.2309 -4.57715,-6.64276 -3.19763,-1.8136 -5.16693,0.68298 -7.66181,3.15497 m 22.88215,-12.99402 c -0.37268,3.72424 0.65936,6.84259 4.67822,7.56469 3.75525,0.67469 6.33868,-1.71124 8.0459,-4.7489 1.88898,-3.36102 -0.37085,-5.75006 -2.63587,-7.73675 -2.92071,-2.56171 -6.10009,-1.12415 -10.08825,4.92096 m -92.09693,49.17169 c -4.30346,0.0344 -7.03451,2.53864 -7.68548,6.38318 -0.56836,3.35626 2.32721,5.33331 5.1322,6.55505 3.42013,1.48969 5.74145,-0.78216 7.66425,-3.08807 2.55447,-3.06354 0.91781,-6.48743 -5.11097,-9.85016 m 121.20062,-58.39264 c 6.03901,-1.92694 8.89637,-6.26483 6.3368,-9.88696 -1.6471,-2.33093 -3.78229,-4.50476 -7.05799,-3.47217 -3.07769,0.97009 -5.25671,3.24652 -5.29266,6.52301 -0.0368,3.36517 1.48102,6.10638 6.01385,6.83612 M 263.47557,788.26778 c 3.16397,2.05518 6.33841,1.83008 9.17648,-0.43743 1.93207,-1.54365 1.76346,-3.93097 0.8555,-5.94855 -1.51629,-3.36926 -4.30694,-4.84162 -8.02914,-4.48426 -1.97214,0.18946 -4.2421,0.0675 -4.9841,2.38813 -0.9931,3.10608 -0.0374,5.84607 2.98126,8.48211 m 17.23227,-103.05627 c 4.44693,2.08008 6.36029,-1.18146 8.15271,-4.11371 1.73868,-2.8443 -0.0953,-5.12402 -2.08389,-6.90704 -2.67252,-2.39637 -5.66721,-2.38068 -8.57263,-0.22205 -3.96344,2.94464 -3.53995,5.28729 2.50381,11.2428 M 467.71535,560.61025 c -0.67499,1.60163 -0.69611,3.24707 -0.20276,4.88086 1.12762,3.73413 5.41864,6.38696 8.47589,4.98078 3.1203,-1.43525 5.10345,-3.82972 3.89417,-7.5702 -1.69257,-5.23577 -7.50251,-6.65454 -12.1673,-2.29144 M 255.02779,694.0154 c 0.828,0.005 1.68799,0.15955 2.47836,-0.0102 3.12787,-0.672 4.97424,-2.698 5.26797,-5.83954 0.33307,-3.56274 -2.00299,-5.4068 -4.90011,-6.73376 -2.90646,-1.33124 -5.16467,-0.29657 -7.03735,1.98681 -2.25168,2.74549 -1.16138,5.26581 0.58377,7.7273 0.77487,1.09295 1.56677,2.16186 3.60736,2.86938 m 39.17636,77.38239 c -0.82929,0.0289 -1.68427,-0.0621 -2.48316,0.10895 -2.57043,0.55017 -5.02456,1.63598 -5.1874,4.57458 -0.19584,3.53296 2.10635,5.97003 5.01458,7.44977 2.69651,1.37213 5.24823,0.30279 7.13404,-1.93146 2.63504,-3.12195 1.2471,-6.75238 -4.47806,-10.20184 m -88.41339,-65.7583 c 2.84204,-1.24158 4.95135,-3.12732 3.77636,-6.47248 -1.09964,-3.13061 -3.47818,-5.20751 -6.94247,-5.53302 -2.50913,-0.23577 -4.72592,0.72248 -5.74872,3.04236 -1.43576,3.25653 0.66541,5.66455 2.63831,7.91126 1.48947,1.69623 3.52881,1.5296 6.27652,1.05188 M 447.56575,578.24935 c -2.24628,2.96704 -0.35162,5.31104 1.21045,7.65405 0.99902,1.49842 2.40527,2.32282 4.27045,1.69287 3.14959,-1.06378 5.84271,-2.85174 6.41687,-6.30596 0.55914,-3.36396 -2.11078,-4.98395 -4.56171,-6.43317 -3.47424,-2.05438 -5.08685,0.72467 -7.33606,3.39221 m 55.31915,85.5155 c -1.76019,2.66541 -2.69714,5.38398 -0.17328,8.10205 2.58222,2.78064 6.72779,3.02167 9.34266,0.65882 3.17077,-2.86517 2.51184,-5.69739 0.0643,-8.63336 -2.72748,-3.27198 -5.5719,-3.94782 -9.23365,-0.12751 m -266.81866,33.8338 c 0.93201,-1.34686 1.04202,-2.83929 0.37479,-4.25341 -1.40687,-2.98151 -3.48359,-5.5567 -7.04044,-5.36377 -2.95569,0.16034 -5.58801,1.91882 -6.00626,5.05414 -0.48098,3.60528 2.02741,5.85919 5.04108,7.17816 2.76038,1.20813 5.13647,-0.0998 7.63083,-2.61512 m 6.56302,83.58991 c -2.84903,-2.03589 -5.66525,-1.81964 -8.04181,0.6029 -2.04697,2.08655 -1.43375,4.6073 -0.13541,6.87385 1.48871,2.59893 3.76987,4.20617 6.83878,4.15979 2.19562,-0.0331 3.69156,-1.49781 4.49954,-3.3949 1.39423,-3.27338 -0.23215,-5.70514 -3.1611,-8.24164 m 73.24487,-5.03607 c 3.24893,1.72839 6.01657,1.15564 8.31589,-1.72254 1.66299,-2.08172 1.70566,-4.11548 0.13309,-6.32934 -2.61966,-3.68793 -6.18934,-4.70374 -9.33869,-2.49957 -3.47644,2.43328 -3.38366,5.5498 0.88971,10.55145 m 172.80078,-234.7522 c -3.24383,2.49237 -4.48559,5.3103 -1.54217,8.89789 2.1994,2.68066 4.64538,2.8222 7.46228,0.99982 2.87091,-1.8573 4.46393,-4.41114 2.80493,-7.57929 -1.66571,-3.18091 -4.30682,-5.22345 -8.72504,-2.31842 m 85.27661,51.33295 c -2.58801,3.96454 -1.18457,6.77856 2.51679,9.02435 3.39075,2.05731 5.06055,-0.0326 6.81012,-2.51453 2.48614,-3.52685 1.14795,-6.20532 -1.65393,-8.5982 -3.02143,-2.58039 -5.39911,-1.59137 -7.67298,2.08838 m -402.62747,105.419 c -1.88971,2.51636 -1.14889,4.99518 0.24967,7.35389 1.3128,2.21411 3.05676,4.13031 5.95273,3.354 2.46899,-0.6618 4.682,-2.20105 5.0383,-4.86523 0.35815,-2.67835 -1.43009,-4.70105 -3.62034,-6.00544 -2.19845,-1.3092 -4.6362,-1.68188 -7.62036,0.16278 M 541.81764,493.074 c -0.94977,-2.63691 -3.43786,-3.43305 -5.58514,-4.60004 -1.80536,-0.9812 -3.80847,-1.80389 -5.34039,0.29022 -1.30292,1.78113 -2.09455,3.93415 -0.74805,6.02649 1.5119,2.34943 3.13861,5.19379 6.24878,5.08447 3.43982,-0.12078 4.8977,-2.92437 5.4248,-6.80114 M 184.43266,776.88503 c -3.92324,3.07636 -1.52835,6.15393 0.20954,8.99317 1.36929,2.237 3.78204,2.52905 6.19128,1.8742 2.49823,-0.67895 3.10666,-2.69317 3.23261,-4.99249 0.264,-4.8197 -1.84845,-6.27423 -9.63343,-5.87488 m 376.1688,-153.77386 c 0.7915,-0.22052 1.64703,-0.31635 2.36279,-0.68427 2.42926,-1.24847 3.96014,-3.24041 3.39758,-6.02264 -0.60241,-2.97876 -2.50995,-5.13941 -5.65124,-5.56214 -2.60919,-0.35119 -4.39868,1.2436 -5.58741,3.40326 -1.56921,2.85096 -0.28607,5.14246 1.78754,7.07032 0.81568,0.7583 1.95917,1.16394 3.69074,1.79547 m -38.15937,26.73962 c 1.16791,5.54596 4.09528,8.08307 7.74244,6.53644 2.58306,-1.09534 4.51239,-2.96722 4.55651,-5.99078 0.0417,-2.85785 -2.07586,-4.11609 -4.41912,-4.66187 -3.29694,-0.76794 -6.38074,-0.4967 -7.87983,4.11621 m 77.47205,-75.77618 c 0.85828,-3.94788 -1.8645,-5.12079 -4.7746,-5.49726 -2.98297,-0.38586 -6.05035,0.008 -7.9035,2.97504 -0.31366,0.50226 -0.54004,1.57019 -0.26801,1.84668 2.2912,2.32843 3.82965,5.86224 7.35444,6.37567 3.35406,0.48859 4.10668,-2.771 5.59167,-5.70013 m -85.16864,-44.8404 c 0.97791,-4.31121 -2.00366,-5.53466 -5.17194,-6.44207 -3.14856,-0.9018 -5.03503,1.06152 -6.47424,3.42126 -1.62445,2.66351 -0.38898,4.80145 1.74884,6.47791 2.90796,2.28058 5.62518,1.11981 8.15271,-0.79669 0.63172,-0.47907 1.01587,-1.28461 1.74463,-2.66041 M 155.39552,701.5024 c -3.82678,-4.26886 -8.51144,-5.37121 -10.34735,-2.29919 -1.79114,2.99719 0.21888,5.40497 1.90875,7.60187 1.97401,2.56634 4.82798,2.96569 7.60599,1.7243 3.15274,-1.40875 2.1402,-3.9873 0.83261,-7.02698 M 611.99733,546.82546 c -2.02319,-0.84692 -4.01685,-3.26813 -6.25549,-1.21173 -2.09687,1.92621 -4.71326,4.34949 -1.53559,7.48682 2.05921,2.03308 3.51447,5.97998 7.41693,3.89959 2.97052,-1.58349 3.25068,-7.06915 0.37415,-10.17468 M 102.38445,690.37368 c -1.88727,-0.56799 -3.965606,-1.58411 -5.477266,0.3869 -1.07663,1.40387 -0.47891,3.16626 0.14758,4.74469 1.48478,3.74066 4.272616,5.77551 8.216186,6.27777 1.30322,0.16602 2.43591,-0.28808 2.58136,-1.68164 0.43088,-4.12835 -0.76358,-7.52356 -5.46786,-9.72772 M 525.86311,514.605 c 3.12604,-1.52453 4.08149,-4.12414 2.51642,-7.02148 -1.39795,-2.58771 -4.13263,-4.13709 -7.09887,-3.75781 -2.62146,0.33514 -3.83222,2.80865 -3.79761,5.2127 0.0502,3.47998 2.55865,5.18653 5.68585,5.98542 0.60419,0.15435 1.31128,-0.0944 2.69421,-0.41883 M 120.39955,699.54275 c 0.78754,4.22381 3.19498,6.90539 7.5774,7.06744 1.84991,0.0684 3.64446,-1.14392 3.66305,-3.31342 0.0342,-3.98675 -2.81262,-6.06378 -5.81772,-7.92938 -0.13763,-0.0855 -0.30054,-0.14245 -0.45941,-0.17956 -3.06619,-0.71698 -5.36041,-0.36164 -4.96332,4.35492 M 547.32222,480.24929 c 3.47174,1.35474 4.4928,-1.15717 5.20398,-3.57324 0.87622,-2.97657 -1.01129,-4.66968 -3.47705,-5.75055 -2.47223,-1.08368 -5.09143,-2.24445 -6.94867,0.96124 -1.82172,3.14435 -0.55042,5.34607 2.37067,6.92249 0.72857,0.39325 1.46783,0.7666 2.85107,1.44006 m 73.54303,43.84467 c -3.59259,-1.25837 -5.92737,0.70935 -6.13025,3.76055 -0.27466,4.13074 3.81299,5.31092 6.77399,6.07428 3.42419,0.8827 3.60266,-2.7807 4.13946,-4.94097 0.76038,-3.05988 -1.90698,-3.79621 -4.7832,-4.89386 m -60.13684,-89.67542 c -2.50232,4.80017 -1.41608,7.21112 4.55273,10.10461 3.17243,-3.31048 3.94367,-5.27966 2.65851,-7.73193 -1.39135,-2.65491 -3.57281,-3.8504 -7.21124,-2.37268 m -7.71765,26.15436 c 2.94311,2.36615 5.46698,2.55188 6.70483,-1.62573 0.80304,-2.71003 -0.22394,-4.78791 -2.83551,-6.12354 -1.9256,-0.98486 -3.75104,-1.56232 -5.32928,0.38849 -2.07788,2.56854 -1.42176,4.87628 1.45996,7.36078 m -96.69891,176.32361 c -0.0842,2.35272 0.58477,4.41058 3.16394,4.7669 2.02819,0.28009 3.34051,-1.22308 3.97564,-3.01831 0.71124,-2.01049 -0.24066,-3.6181 -1.99933,-4.48535 -2.26513,-1.11682 -4.13604,-0.58911 -5.14025,2.73676 m 82.95996,-2.974 c 0.0925,2.6549 1.93579,4.02936 3.93707,5.20501 1.24121,0.72913 2.74274,0.84638 3.31183,-0.73101 0.92993,-2.57788 0.0466,-4.79218 -2.08185,-6.51368 -2.31,-1.8684 -3.8584,-0.97058 -5.16705,2.03968 m -179.54584,68.62921 c -0.11676,-2.31512 -1.25592,-3.75049 -3.62091,-3.92883 -1.4671,-0.11066 -2.52124,0.75341 -3.22211,1.96399 -0.8562,1.47882 -0.54193,2.97283 0.50855,4.15771 2.93426,3.30945 4.79425,1.62439 6.33447,-2.19287 M 545.64064,552.43545 c -1.93017,0.0713 -3.19104,0.83563 -2.78656,2.99884 0.25257,1.35089 0.95978,2.43353 2.51685,2.58508 1.46185,0.14233 2.63836,-0.39697 3.08355,-1.81506 0.59174,-1.88477 -0.2221,-3.14124 -2.81384,-3.76886 z"
   id="path2"
   style="fill:#000000" />
<path
   fill="#000000"
   opacity="1"
   stroke="none"
   d="m 157.87831,415.62545 c 6.01746,0.8916 11.63373,-0.12335 17.04114,-1.6922 4.05698,-1.177 6.22021,-0.41449 7.51163,3.66193 1.20602,3.80694 3.08886,7.19561 8.07794,6.44702 2.7424,-0.41144 5.3996,-0.91669 5.30301,-4.62653 -0.11624,-4.46283 -3.66251,-8.39026 -7.86563,-7.9165 -4.84308,0.54596 -9.62735,-0.26904 -14.43467,0.0322 -2.45925,0.15418 -4.55136,-0.58679 -6.21899,-2.53357 -8.01974,-9.36206 -16.19748,-18.59173 -24.07666,-28.06997 -4.86423,-5.85135 -4.21683,-7.42325 3.43131,-8.52365 10.07507,-1.44965 20.09756,-3.08909 29.78225,-6.27979 4.40995,-1.45282 7.78369,-0.44861 10.46601,3.26267 8.28625,11.46496 19.94775,20.10064 27.11077,32.5491 1.9722,3.42749 9.08915,2.62329 12.13105,-1.22962 -5.1257,-1.38104 -7.74442,-5.44342 -10.49308,-9.40554 -5.25759,-7.57868 -12.33218,-13.53504 -18.34024,-20.43085 -7.11325,-8.16428 -8.78183,-9.07587 3.5127,-12.92078 7.30731,-2.28522 14.78024,-4.04352 22.0752,-6.36423 3.22998,-1.02752 5.46136,-0.3572 7.41891,2.19745 8.19702,10.69718 17.80862,20.27988 24.91705,31.84574 1.65409,2.69134 1.83265,4.53564 -1.33676,5.91186 -1.35327,0.58759 -2.67306,1.25223 -4.24612,1.99411 2.22772,0.84424 4.51754,-1.7348 6.3461,0.86975 0.28198,1.76661 -2.22956,2.75361 -1.63208,4.83173 0.725,2.52179 0.56985,5.63025 3.34366,6.89148 2.80142,1.2738 6.00183,0.37689 7.95324,-1.51709 3.64209,-3.53497 6.61902,-3.98419 9.63874,0.32672 1.65771,2.36658 -1.41318,9.22217 -5.09122,10.71387 -3.68726,1.49536 -7.5531,2.65985 -11.43799,3.53985 -19.61426,4.44349 -39.34274,8.40943 -58.87326,13.18836 -22.04593,5.39429 -44.26019,5.67627 -66.45474,2.49493 -20.12528,-2.8847 -36.892306,-13.33294 -51.331576,-27.15649 -12.40211,-11.87317 -25.9712,-22.38996 -38.33456,-34.32175 -6.53424,-6.30609 -9.80458,-13.80444 -12.42345,-21.79993 -3.10077,-9.46673 -5.98918,-19.08395 -6.40918,-29.17761 -0.067,-1.61053 -0.47891,-3.60095 1.19158,-4.59149 1.97607,-1.17172 3.46754,0.56943 4.86129,1.58432 12.52129,9.11777 24.58785,18.87228 37.80968,27.00559 2.83046,1.74111 2.91258,5.09039 4.58788,7.53601 2.49238,-0.48478 1.81031,-3.52646 3.97238,-4.40342 2.048,-0.19552 3.21115,1.81867 4.95965,2.63981 1.7497,0.82162 3.65323,1.50625 4.94166,-0.39106 1.28884,-1.89795 0.72033,-3.92099 -1.05939,-5.32376 -1.29297,-1.0191 -2.79318,-2.41668 -4.2526,-2.48135 -11.308,-0.50107 -19.28088,-7.69776 -27.85429,-13.61536 -7.67487,-5.29745 -15.06827,-11.0021 -22.73138,-16.31726 -4.8297,-3.34991 -6.46576,-8.14307 -6.60251,-13.59393 -2.78145,-0.17307 -1.91529,2.92538 -4.45935,3.17471 -2.73497,-0.91827 -5.28434,-4.38641 -9.63823,-3.35464 -0.30379,3.69842 0.3437,6.73932 4.01077,8.69699 6.47955,3.45907 8.33134,9.25934 5.47911,16.66403 -2.42084,0.37637 -3.29027,-2.7908 -6.04808,-2.4595 -0.68715,2.81448 0.69734,4.68148 3.26106,5.38797 3.54598,0.97717 5.20136,3.37701 6.04485,6.6185 2.16418,8.31695 4.28427,16.64535 6.57438,25.56256 -4.70568,-0.81983 -7.04682,-3.84977 -9.50245,-6.5549 -15.9743397,-17.5972 -21.43151975,-38.77329 -20.35363975,-61.90589 0.81718,-17.53753 4.34386005,-34.78717 9.89594975,-51.30859 12.10541,-36.02213 29.3479,-69.51163 51.60791,-100.48203 19.67348,-27.37179 42.272836,-51.950412 68.056136,-73.498272 28.65585,-23.94855 59.53949,-44.39768 95.33511,-56.42929 17.89746,-6.0156701 35.98123,-11.00814008 55.1033,-10.54846008 12.917,0.31053 25.47525,2.62479998 37.58521,7.16769998 5.35501,2.00887 9.93484,6.4627301 11.17077,10.9571301 -5.40081,0.71211 -10.11257,-1.56221 -14.93627,-2.92479 -2.85883,-0.80757 -5.02857,-1.96396 -7.93433,1.0256 -2.37946,2.44811 -6.66077,2.4382 -9.3876,-0.75462 -2.60172,-3.04631 -5.9921,-4.15453 -9.62595,-4.74031 -3.2543,-0.5246 -5.62463,0.36253 -3.80548,4.33081 1.86462,4.06755 -0.28293,5.0482 -3.68121,5.28312 -4.68229,0.32372 -8.79535,0.60029 -11.9213,-4.65576 -2.8851,-4.85112 -11.44708,-3.94995 -17.40433,0.83965 2.41617,6.12405 5.07477,8.16145 10.91352,7.49966 16.91806,-1.91755 33.80679,-2.22012 50.84286,-1.32158 14.96875,0.78951 27.14829,6.91162 38.38345,15.97246 5.83344,4.70453 11.80695,9.25646 17.04358,14.64356 4.49561,4.62474 3.66443,7.73124 -2.60058,9.56562 -7.42713,2.17466 -15.19818,1.59755 -22.79444,2.416 -8.31417,0.89577 -16.57605,1.82752 -24.40979,4.75606 -4.78976,1.79059 -9.01318,1.10018 -12.63549,-1.97558 -15.01294,-12.74776 -31.77698,-23.14548 -47.13208,-35.41602 -3.62876,-2.89978 -5.97278,-7.8163 -11.93558,-6.38908 -1.77496,0.42483 -3.66934,0.34532 -4.96189,2.65263 2.09147,1.46727 4.25016,2.89089 6.31229,4.4428 15.97113,12.01951 31.92783,24.05821 47.87476,36.10977 1.45959,1.10304 3.09216,2.13154 4.16845,3.55462 2.12272,2.80675 4.52012,4.01876 8.10343,3.19869 2.60425,-0.59596 4.84756,0.5509 6.65429,2.59384 1.09189,1.23462 2.28788,2.46053 3.6597,3.34502 2.12876,1.37246 4.54505,1.39671 6.57425,-0.13782 2.37406,-1.79535 0.83551,-3.94074 -0.0257,-5.84541 -0.67041,-1.48272 -1.62946,-2.83492 -2.44873,-4.22561 5.12442,-3.48796 10.01931,-3.34631 15.23101,0.31354 5.92695,4.16213 5.9574,4.1922 10.90064,-0.81817 1.27844,-1.29583 2.57635,-1.29361 4.08594,-0.71746 3.25122,1.24082 5.32416,3.38961 5.30401,7.0559 -0.0211,3.83889 -1.96911,6.30557 -5.64831,7.25792 -15.38245,3.98164 -29.83579,10.28038 -44.24637,16.887662 -27.35611,12.54276 -51.7023,29.6326 -74.7945,48.59698 -29.0931,23.89255 -54.91931,51.03959 -77.31271,81.28232 -24.48523,33.06784 -43.76233,68.81171 -53.40106,109.22165 -2.782066,11.66358 -5.868196,23.22275 -5.733796,35.38022 0.14237,12.87497 2.80402,24.93829 11.518586,34.77264 4.13956,4.67139 9.28302,8.46149 14.0466,12.56391 0.83847,0.72205 1.9993,1.25897 3.71393,0.47943 1.2554,-4.16754 -0.51361,-7.31586 -3.92972,-9.94879 -9.28806,-7.15857 -14.82529,-16.97101 -18.52298,-27.74265 -2.08484,-6.07333 -0.16202,-8.03494 6.23126,-8.67309 5.13236,-0.5123 10.28378,-0.93598 15.37399,-1.73508 4.04853,-0.63559 7.14594,0.46362 9.70475,3.61453 7.03409,8.66162 14.04428,17.34537 21.2417,25.87021 2.55673,3.0282 2.84326,6.22272 2.33993,9.96625 M 35.575364,238.35671 c 7.28701,-5.32696 8.99511,-5.29178 16.53261,0.34387 0.40033,0.29932 0.79524,0.60593 1.19016,0.91236 10.65759,8.27157 21.05783,16.87439 32.19111,24.53094 4.85413,3.33826 8.78296,7.54913 11.04486,13.20301 0.98075,2.45147 2.70386,4.6697 4.880586,6.21411 2.699,1.91501 5.67984,2.32013 7.99429,-0.64618 2.23337,-2.86237 1.64862,-5.63031 -1.08969,-7.8938 -2.72674,-2.25388 -5.85126,-3.66544 -9.684286,-3.77948 0.51913,-4.87979 -2.39814,-7.31314 -5.8075,-9.78961 -15.22922,-11.06223 -30.63301,-21.90738 -44.99849,-34.10358 -2.16957,-1.84195 -3.90329,-2.31305 -6.02412,-0.25659 -2.11,2.04593 -4.17672,2.0343 -6.70665,0.39517 -4.26595,-2.76389 -5.82938,-2.13043 -7.82019,2.52841 -2.44641,5.72504 0.21542,8.74762 8.29731,8.34137 M 207.56792,98.264518 c -13.37561,-12.59558 -29.63095,-22.05918 -40.27539,-37.67671 -2.75574,-4.0432 -6.34607,-3.7555 -8.71213,-0.54552 -2.80621,3.80728 -0.31415,6.09292 2.53467,8.22906 1.97342,1.4798 4.59222,2.08686 5.92947,4.4294 2.5246,4.42253 6.23071,7.75397 10.07871,10.97427 9.57287,8.01127 19.13836,16.03191 28.64727,24.118762 4.30753,3.66335 8.42405,7.55108 12.72504,11.22242 2.14447,1.83052 4.82025,2.09343 6.84512,0.1515 2.43164,-2.33203 0.0144,-4.35927 -1.38485,-5.98367 -4.69147,-5.44612 -10.3638,-9.85877 -16.38791,-14.919512 M 148.41957,187.027 c -0.66806,-2.85193 -2.13009,-5.19769 -4.38504,-7.08142 -12.76718,-10.66556 -25.08905,-21.87189 -38.48346,-31.77423 -2.26813,-1.67682 -4.71432,-3.11878 -7.120296,-4.60095 -1.45129,-0.89402 -2.84851,-0.70792 -4.07089,0.53961 -1.38739,1.41589 -0.84995,2.77359 0.2406,3.96389 1.79483,1.95899 3.55536,3.98768 5.577446,5.69413 14.23658,12.0144 28.55643,23.93014 42.80057,35.9357 3.19016,2.68878 4.97202,2.18716 5.44107,-2.67673 m -26.60571,54.87677 c -5.03986,2.26715 -7.14636,6.70181 -8.34561,11.6589 -0.75287,3.11191 1.27862,5.04322 3.7034,6.37897 2.4422,1.34534 4.13495,-0.36462 5.52969,-2.03592 1.37521,-1.64789 2.58588,-3.45852 3.6842,-5.3074 3.57929,-6.02524 2.80536,-8.07645 -4.57168,-10.69455 m 47.71954,-63.19748 c 3.66935,6.06674 9.87857,6.10492 14.1973,0.0264 1.43109,-2.01422 3.2048,-4.21735 0.83716,-6.62778 -2.09607,-2.13397 -4.67075,-3.19809 -7.64646,-1.72641 -3.34189,1.6528 -6.24228,3.77353 -7.388,8.32776 m 71.36389,-63.69241 c -1.51312,-0.66745 -2.93081,-0.18972 -4.33831,0.36851 -2.32978,0.92401 -5.40705,1.82158 -5.40177,4.51982 0.007,3.74771 3.62281,5.24742 6.45062,6.93126 2.50473,1.49147 4.48639,0.0918 6.22278,-1.56903 3.43433,-3.28486 2.70835,-6.34273 -2.93332,-10.25056 m -90.66073,87.66559 c 1.01788,0.83822 1.92273,1.90918 3.07574,2.4692 2.96613,1.44065 5.79962,1.40699 7.91144,-1.60925 1.64609,-2.35098 2.47217,-4.84262 0.20587,-7.23584 -2.89963,-3.06195 -6.34872,-3.55933 -9.89276,-1.26688 -2.64017,1.7078 -4.04281,4.01218 -1.30029,7.64277 M 118.94655,93.733538 c -2.87442,3.89374 -1.88056,7.267642 1.67853,9.945362 3.70678,2.78882 5.32535,-1.00241 7.2756,-2.86366 2.37763,-2.269042 3.47211,-5.222032 0.65811,-7.853272 -2.90777,-2.71891 -6.17138,-3.18828 -9.61224,0.77157 M 82.659074,321.29967 c -0.39929,1.24384 -1.05404,2.46894 -1.14688,3.73526 -0.22186,3.02634 3.61154,7.50065 6.65009,7.6149 3.61798,0.13605 4.41144,-3.03933 5.39453,-5.53085 0.95123,-2.41086 -0.78537,-4.10028 -2.59989,-5.32541 -2.38699,-1.61169 -4.80307,-3.95724 -8.29785,-0.4939 M 231.26149,410.5425 c 3.19864,2.75342 5.92929,0.64752 8.59335,-0.95929 1.3769,-0.8305 3.07438,-1.91424 2.55869,-3.87481 -0.66522,-2.529 -2.48438,-5.12622 -4.85779,-5.16999 -3.1113,-0.0572 -6.78152,0.76911 -8.81006,3.47315 -1.66861,2.22418 0.25876,4.34253 2.51581,6.53094 M 51.993534,177.75365 c -0.43382,0.89295 -1.02487,1.7446 -1.27225,2.6865 -0.7677,2.92309 -0.73864,5.849 2.46071,7.23501 3.02901,1.3122 5.40459,0.0429 7.06183,-2.80835 1.99509,-3.43258 2.25057,-6.58407 -1.16669,-9.24981 -2.78061,-2.16916 -4.90248,-0.97498 -7.0836,2.13665 M 205.01497,156.52572 c 1.89218,-3.46872 0.40396,-5.7049 -2.72641,-7.24704 -3.25848,-1.60526 -5.94388,-0.29425 -7.88226,2.23968 -1.89045,2.47129 -2.0965,5.3696 0.42401,7.65186 2.63333,2.38443 5.48089,1.98755 8.12573,-0.17569 0.63388,-0.51843 1.11554,-1.22299 2.05893,-2.46881 M 80.601214,136.225 c -0.4497,1.57574 -0.0848,2.96087 1.07489,4.09012 2.4198,2.35614 5.34195,3.48828 8.59336,2.42361 2.14065,-0.70093 3.61084,-2.55405 3.40353,-4.95422 -0.25128,-2.91007 -2.09454,-4.78373 -4.84143,-5.68628 -3.65546,-1.20111 -5.96292,0.77868 -8.23035,4.12677 m 135.609406,6.28009 c 3.95987,2.66348 6.73926,0.45498 8.57828,-2.67658 2.03668,-3.46811 -0.94074,-5.41516 -3.35416,-7.08899 -3.39462,-2.35431 -5.939,-0.54428 -7.95249,2.19257 -2.35171,3.1965 -0.95678,5.49841 2.72837,7.573 M 90.123774,299.75164 c -0.2212,0.95032 -0.81687,1.9982 -0.599,2.83408 0.96142,3.68844 3.52413,6.09307 7.2456,6.37368 3.11081,0.23459 4.722436,-2.12268 4.941496,-5.07443 0.26453,-3.56424 -2.332426,-5.21707 -5.019676,-6.64374 -2.64582,-1.40469 -4.76362,-0.77331 -6.56842,2.51041 m -48.97164,-87.20685 c 5.00375,0.85755 7.00087,-2.51407 8.05248,-6.32928 0.87847,-3.18708 -2.00484,-5.04779 -4.27651,-5.9488 -3.29085,-1.30523 -5.19279,1.6067 -6.56854,4.00135 -1.79442,3.1235 -1.51055,6.10577 2.79257,8.27673 m 26.51889,-48.52804 c 4.68681,1.1911 9.27347,-1.22205 9.70746,-5.50049 0.40681,-4.01081 -3.14075,-4.50183 -5.86768,-5.42313 -2.41446,-0.8157 -4.31305,0.44583 -5.44468,2.36997 -1.65808,2.81936 -1.47673,5.67306 1.6049,8.55365 M 141.46181,84.547258 c 0.63922,0.13938 1.28259,0.41489 1.91702,0.39565 3.64591,-0.1106 6.05515,-2.25601 6.66696,-5.54523 0.63709,-3.42497 -2.6192,-4.60477 -4.99417,-5.95615 -2.51831,-1.43292 -4.4072,-0.0427 -6.0112,1.83637 -2.42935,2.84602 -1.66681,5.44134 0.69992,7.87231 0.344,0.35334 0.73441,0.66153 1.72147,1.39705 M 258.0526,111.78895 c 3.72052,2.06021 6.6138,0.70199 8.3107,-2.67702 1.60904,-3.20406 -0.60828,-5.43387 -3.19202,-6.90611 -3.48569,-1.98621 -6.54825,-0.79227 -8.73056,2.2279 -2.69354,3.72779 0.60224,5.25211 3.61188,7.35523 M 133.70738,227.77682 c 1.72565,2.27835 3.88443,4.01324 6.73255,2.41772 2.51306,-1.40784 4.23574,-3.8692 4.33725,-6.85113 0.10052,-2.95258 -2.21354,-4.30536 -4.64072,-5.12833 -4.01578,-1.36163 -6.95789,2.57468 -6.42908,9.56174 m -32.36981,-115.8281 c -1.672356,1.69235 -4.656456,2.92265 -3.461386,5.91526 1.19259,2.98635 3.338366,5.83778 7.130366,4.64839 2.99749,-0.94017 5.90454,-2.91893 5.39294,-6.71546 -0.44171,-3.27815 -4.90616,-5.28225 -9.06192,-3.84819 M 21.405054,289.8565 c 1.07473,0.41308 1.87623,0.28274 2.32727,-0.95328 1.99403,-5.46478 -1.8131,-11.81448 -7.49415,-12.65152 -2.3509,-0.34637 -2.72038,0.94351 -3.08679,2.77142 -1.2731,6.35117 3.51342,8.18219 8.25367,10.83338 M 180.68541,54.184058 c 3.00723,1.60783 5.40717,0.16685 7.70419,-1.58785 1.78006,-1.35983 3.38514,-2.80847 1.70972,-5.34036 -2.21548,-3.34804 -7.10687,-4.20518 -10.47079,-1.66902 -3.84159,2.89627 -2.18372,5.60847 1.05688,8.59723 M 27.270164,254.41473 c -2.28212,-1.3667 -4.61328,-4.41346 -7.25736,-1.25876 -2.37632,2.8352 -2.79857,6.41903 -0.19446,9.57058 1.43323,1.73453 3.51987,2.59555 5.80283,1.96344 2.20015,-0.60922 2.27925,-2.65832 2.36296,-4.46188 0.0821,-1.76959 0.88506,-3.60016 -0.71397,-5.81338 M 284.9428,92.777318 c -1.02591,-0.80586 -1.95749,-1.7946 -3.09616,-2.38181 -2.90021,-1.49557 -5.50013,-0.76815 -7.4928,1.69242 -1.78684,2.2064 -0.32477,4.0785 1.10238,5.699 2.53031,2.873052 5.74668,3.230182 8.95078,1.48928 2.52972,-1.37452 2.4808,-3.65033 0.5358,-6.49889 m -80.73688,-60.91412 c -2.564,1.13014 -5.7543,2.01008 -4.56265,5.80148 0.94827,3.01703 3.67086,4.34813 6.6459,4.12953 2.89835,-0.21294 5.73566,-1.6411 6.21463,-4.76089 0.46378,-3.02097 -2.58844,-3.87519 -4.6886,-5.01638 -0.78912,-0.42878 -1.91717,-0.23379 -3.60928,-0.15374 m 6.7301,386.931562 c 3.3179,-0.61139 7.65079,-0.48199 7.23993,-5.34112 -0.24905,-2.94574 -3.13177,-4.59498 -6.17856,-4.91791 -2.43188,-0.25788 -5.043,0.43231 -6.06714,2.57385 -1.23715,2.58698 1.01441,4.58661 2.6453,6.43225 0.41931,0.47455 1.1,0.71814 2.36047,1.25293 M 226.85115,22.489658 c -2.50284,0.5233 -4.97513,1.33434 -5.69034,4.07124 -0.48904,1.8716 1.24015,2.86474 2.58521,3.83643 2.94049,2.1243 5.98309,1.39069 8.95673,0.19138 1.29251,-0.52129 2.22119,-1.63796 1.61767,-3.17246 -1.18796,-3.02032 -3.36453,-4.82339 -7.46927,-4.92659 m 67.53131,65.28035 c 1.02149,0.81773 2.01422,1.67487 3.07044,2.44498 2.16723,1.58017 4.26269,1.52873 6.18829,-0.43756 1.7189,-1.75519 1.50711,-3.59232 -0.0616,-5.23476 -1.96537,-2.05772 -4.15519,-4.15715 -7.26313,-2.39798 -1.81982,1.03006 -4.66534,2.02875 -1.93402,5.62532 M 139.10921,417.47433 c -1.8461,0.24408 -2.67411,1.18957 -2.08228,3.07342 0.82147,2.61487 2.09192,4.89185 4.81751,5.95068 1.61038,0.62556 3.25988,0.8252 4.67105,-0.43994 1.60696,-1.44073 0.77176,-3.04742 0.0837,-4.54681 -1.31638,-2.86859 -3.60877,-4.20428 -7.48999,-4.03735 m 21.77719,5.00152 c 1.85385,4.75525 6.35962,6.19501 9.96109,3.18225 1.46548,-1.22595 2.07327,-2.56762 0.52325,-4.16644 -2.22705,-2.29718 -7.70041,-2.13397 -10.48434,0.98419 M 80.758034,375.27663 c 1.50424,0.86661 3.25217,1.54279 4.44699,-0.0487 1.26789,-1.68888 0.30902,-3.59213 -0.90149,-4.93778 -1.96606,-2.18551 -4.32461,-3.79773 -7.69065,-3.08905 0.12474,3.24967 1.78361,5.45633 4.14515,8.0755 m 1.85987,18.85065 c 1.64666,1.68414 3.05984,3.75262 6.11978,3.97772 -0.75058,-5.20306 -2.69199,-8.7377 -7.89246,-9.72342 -0.98099,2.32361 0.42877,3.6875 1.77268,5.7457 z"
   id="path4"
   style="fill:#000000" />
<path
   fill="#000000"
   opacity="1"
   stroke="none"
   d="m 320.93486,443.00783 c -15.32214,27.53309 -30.00342,55.01459 -45.77096,81.85792 -9.41941,16.03607 -19.34958,31.81323 -29.35938,47.5241 -14.31583,22.46949 -29.961,44.05481 -43.83981,66.80243 -1.6427,2.69233 -3.60581,5.20111 -5.55243,7.69171 -1.12622,1.44092 -2.54892,3.04535 -4.60883,1.92688 -2.18988,-1.18884 -1.88855,-3.34387 -1.19922,-5.31976 2.30298,-6.60144 4.37,-13.30621 7.06635,-19.74573 11.31085,-27.01324 19.91797,-55.04461 31.19354,-82.07428 10.57425,-25.34832 21.15146,-50.69915 32.78119,-75.57586 8.45728,-18.0907 17.63016,-35.85138 26.68488,-53.65699 9.97372,-19.61279 17.69168,-40.26812 27.61047,-59.87521 7.20785,-14.2482 13.57172,-28.88901 21.03732,-43.02252 8.1604,-15.44895 15.20954,-31.48145 22.90784,-47.17871 9.45752,-19.28424 18.27985,-38.8689 27.54108,-58.23343 5.62115,-11.75333 4.65808,-20.74335 -3.97297,-30.35843 -13.1604,-14.6608 -19.46826,-32.2373 -19.65374,-52.08705 -0.19629,-21.01412 8.828,-37.839812 22.7586,-52.661902 24.81025,-26.39813 56.07349,-33.02936 90.51276,-29.08186 19.42194,2.22618 37.9458,7.80405 53.89294,19.59799 19.38996,14.3401 32.11536,33.50104 36.55719,57.190602 7.50348,40.01768 -16.79516,89.04631 -60.30713,100.2643 -12.37676,3.19088 -24.40325,0.86752 -36.59454,-0.77323 -11.99548,-1.61444 -21.99322,2.23151 -29.16894,12.27304 -5.43671,7.60804 -9.21656,16.1969 -13.88477,24.26221 -14.51044,25.06967 -28.45984,50.46475 -42.56409,75.76855 -11.3518,20.36585 -22.55255,40.81601 -33.93145,61.16657 -9.90326,17.71136 -19.9621,35.33569 -30.1359,53.31866 M 479.73897,67.636148 c -13.29694,-2.35624 -26.53559,-3.8853 -40.11517,-1.59583 -25.20618,4.24963 -42.55408,17.64833 -49.61603,42.476042 -4.15064,14.59198 -3.43512,29.05889 6.50659,41.81008 2.32544,2.98257 4.94293,5.39514 8.63525,6.448 15.85871,4.52206 34.21576,-3.23273 41.54157,-18.00534 4.13617,-8.34063 7.32849,-17.14509 11.32464,-25.5608 3.03357,-6.38853 3.28907,-12.76164 1.56928,-19.435622 -0.77271,-2.99829 -2.38202,-5.53268 -4.35376,-7.77823 -2.42304,-2.75947 -1.90003,-5.37576 0.41376,-7.4732 2.66791,-2.41848 4.51532,0.15973 6.28802,1.8195 2.47364,2.31603 4.26502,5.11185 5.34345,8.33193 1.37402,4.10278 2.67566,8.22991 4.06536,12.327282 0.71088,2.09558 1.50849,4.60495 4.44959,2.91173 7.60693,-4.379412 15.95343,-6.477752 24.32501,-8.744372 6.5138,-1.7636 10.27826,0.15956 11.70789,7.106872 0.65283,3.1724 -0.17627,5.20493 -3.67554,5.67612 -9.67987,1.30345 -17.8277,6.19459 -25.82983,11.30343 -5.31391,3.39257 -9.37763,8.10314 -11.87104,13.86969 -5.87878,13.59607 -6.27331,27.6475 -1.09143,41.36713 6.48011,17.15698 22.09265,23.88812 38.97126,16.42108 22.81402,-10.0928 34.89093,-29.40524 37.01812,-53.1387 3.40113,-37.948382 -26.93127,-70.578952 -65.60699,-70.136792 M 311.38432,407.97127 c -10.0339,19.18079 -20.11602,38.33661 -30.03946,57.57441 -1.20968,2.34515 -3.36398,5.59698 -0.21563,7.6333 3.30432,2.13726 5.32464,-1.15155 7.31863,-3.31922 0.22418,-0.24365 0.37604,-0.55316 0.59586,-0.80175 6.81222,-7.70337 9.35064,-17.54731 13.42297,-26.63593 10.49472,-23.42224 23.21607,-45.68286 35.36804,-68.2597 20.2027,-37.53406 40.25934,-75.15564 59.40235,-113.25528 7.24255,-14.41443 13.86572,-29.19004 22.99627,-42.60782 6.8451,-10.05921 16.15631,-16.15347 28.17804,-18.03104 2.29517,-0.35843 4.69739,-0.16846 6.9397,-0.69891 4.35254,-1.02957 5.35455,-3.38196 3.20746,-7.32828 -2.09277,-3.84625 -3.39704,-7.95334 -4.48627,-12.14777 -2.82684,-10.88583 -6.59576,-12.62616 -16.49273,-7.81393 -8.74372,4.25149 -15.3133,9.83615 -17.63233,20.1557 -2.03448,9.05356 -6.06616,17.60095 -10.66955,25.78345 -3.75507,6.67459 -7.32581,13.45993 -10.77106,20.3005 -10.86054,21.56363 -21.15106,43.42972 -32.55707,64.69883 -11.40832,21.2734 -21.63635,43.14962 -33.55701,64.16226 -7.38986,13.02618 -13.80108,26.60754 -21.00821,40.59118 M 247.77117,549.4031 c 3.29602,-6.51556 6.71734,-12.97217 9.82675,-19.57556 1.25869,-2.6731 1.92257,-5.64405 2.68585,-8.52478 0.34912,-1.31775 0.0832,-2.74988 -1.29675,-3.45527 -1.17575,-0.60101 -2.26273,0.0662 -3.22733,0.74714 -2.08533,1.47204 -3.43613,3.58838 -4.8027,5.66845 -11.21192,17.06476 -16.47776,36.72913 -24.09259,55.44135 5.90878,-10.58148 13.57153,-19.88519 20.90677,-30.30133 M 364.35164,272.049 c 12.34631,-26.06619 27.18939,-51.03756 35.02917,-79.0849 -19.94689,47.43573 -44.48034,92.72083 -66.63897,140.44779 2.71496,-1.6275 3.59649,-2.96744 4.20111,-4.56031 5.15008,-13.56701 13.33148,-25.66738 18.8728,-39.05874 2.41199,-5.82901 5.41962,-11.41156 8.53589,-17.74384 M 430.14656,50.071908 c -24.84973,4.74762 -50.393,29.89891 -51.74573,43.9831 12.01923,-23.5718 31.96833,-36.90568 56.43671,-44.5259 -1.31921,0.12966 -2.63849,0.25932 -4.69098,0.5428 M 316.58043,370.05572 c 3.9472,-8.67517 7.89441,-17.35031 11.84158,-26.02549 -6.02987,9.37799 -10.65051,19.37891 -14.07776,29.96619 0.63544,-1.11441 1.27088,-2.22882 2.23618,-3.9407 m -53.95606,107.89175 c 0.0959,0.28235 0.18323,0.56867 0.30656,0.83844 0.008,0.0181 0.3637,-0.0395 0.43148,-0.14392 1.76453,-2.71643 3.44361,-5.47327 3.564,-8.93329 -1.37104,2.57758 -2.74204,5.15515 -4.30204,8.23877 z"
   id="path6"
   style="fill:#000000" />
<path
   fill="#000000"
   opacity="1"
   stroke="none"
   d="m 353.72884,411.89126 c 6.54858,-11.83197 13.14502,-23.21707 18.51758,-35.25076 1.80596,-4.04514 4.83404,-5.68183 9.47454,-5.84876 8.9137,-0.32068 17.21668,3.40305 26.0539,3.27402 2.03406,-0.0297 3.16473,1.80816 3.95874,3.45538 5.90301,12.24591 13.63128,23.73682 15.71039,37.57581 0.19122,1.27307 0.80243,2.20996 1.84204,2.81012 2.24908,1.29828 3.04211,3.26776 3.31158,5.76593 0.19519,1.80944 1.14417,3.48541 2.50519,4.79394 1.58417,1.52307 3.4964,1.92841 5.54932,1.20862 2.16497,-0.75916 3.00616,-2.47058 3.0285,-4.68073 0.0171,-1.70324 -0.0504,-3.57916 -1.22009,-4.74841 -6.79303,-6.7912 -8.14496,-16.24823 -12.13813,-24.39813 -3.80481,-7.76572 -7.33435,-15.66821 -10.88116,-23.55725 -1.10193,-2.4509 -3.02057,-2.78031 -5.31342,-2.76493 -5.73736,0.0386 -11.47509,0.0128 -17.31585,0.0128 1.5111,-11.51501 0.33465,-15.11264 -11.1825,-11.69931 -0.65698,-5.07913 2.58301,-9.78287 7.86493,-11.33642 6.17627,-1.81659 12.5484,-1.46644 18.86633,-1.56873 28.84046,-0.46701 57.57465,0.75003 85.83973,7.00195 13.17468,2.91413 25.9024,7.3049 38.13775,13.20249 7.62805,3.67679 10.56513,9.5639 10.96271,17.4945 0.70886,14.13803 -2.72656,27.48319 -8.17023,40.28501 -3.5766,8.41113 -7.7868,16.56293 -10.80163,25.21399 -1.15418,3.31201 -2.77149,4.20581 -6.34107,3.21856 -20.43042,-5.65045 -41.2558,-8.7901 -62.4331,-10.19384 -14.46576,-0.95887 -28.89783,-2.1872 -43.40454,-1.888 -23.87049,0.49224 -47.43653,3.57586 -70.7757,8.51318 -2.41888,0.51172 -5.31671,1.80951 -7.05316,-0.34094 -1.71655,-2.12586 -0.54553,-5.08911 0.11151,-7.64661 0.58728,-2.28589 1.77197,-3.43054 4.3659,-2.47205 3.0467,1.1258 6.06263,0.88324 8.15351,-1.86077 2.05414,-2.69562 0.24719,-5.03284 -1.31049,-7.22968 -1.60992,-2.27039 -1.73309,-4.64655 -0.55578,-7.08441 1.44696,-2.99646 2.98748,-5.94775 4.6427,-9.25653 m 159.88708,26.1784 c 2.96204,0.32672 5.37586,-0.28497 5.94147,-3.71905 0.57483,-3.48908 -0.78821,-6.20301 -4.29669,-6.68341 -5.37635,-0.73609 -6.82752,-4.38666 -7.935,-8.80005 -2.63196,-10.48877 -5.5022,-20.88727 -11.86682,-29.93192 -1.11011,-1.57751 -1.6557,-3.62664 -2.16736,-5.53686 -1.5033,-5.61145 -4.97363,-7.49137 -10.94037,-5.66095 0.95343,1.1716 2.18268,2.17486 2.75848,3.46887 5.33265,11.983 10.87916,23.92166 13.89991,36.74106 0.82812,3.51453 0.11029,7.32794 4.55859,8.89483 0.44226,0.15577 0.58087,1.4466 0.68933,2.2342 0.8512,6.1828 2.49549,7.91943 9.35846,8.99328 M 362.63124,426.19747 c 0.22449,0.80121 0.47107,1.59705 0.6695,2.40466 0.72534,2.95252 2.42114,4.71839 5.63598,4.49909 2.74787,-0.18738 6.26789,0.57733 7.3794,-2.7489 0.97967,-2.93152 -0.44391,-5.95868 -2.55481,-8.19959 -2.40717,-2.55548 -5.45459,-1.69977 -8.43518,-1.01672 -2.43665,0.55841 -3.37494,1.88641 -2.69489,5.06146 m 98.60498,-67.29666 c -4.12945,4.8425 -2.75921,8.4866 4.13031,11.19186 3.73157,1.46524 5.78229,-0.0352 6.51618,-3.65383 1.22088,-6.01893 -3.00238,-9.29969 -10.64649,-7.53803 m 34.1922,6.5654 c -1.28222,-1.58438 -2.92083,-2.61966 -4.85803,-3.23331 -2.05933,-0.65228 -4.45404,-1.61862 -5.94959,0.37381 -2.07525,2.76465 -1.75909,6.38901 0.13971,8.83273 2.28846,2.94535 6.28949,3.02176 9.53235,1.76029 3.34497,-1.30121 2.94294,-4.30982 1.13556,-7.73352 m -41.05627,55.64636 c -0.8111,4.55994 0.76056,7.89246 5.20343,9.48969 2.20984,0.79437 4.78033,1.36541 6.48407,-0.79181 1.68249,-2.13044 1.32464,-4.81324 0.24853,-7.12799 -1.52319,-3.27637 -6.31427,-4.11628 -11.93603,-1.56989 m -7.73206,-61.85608 c -1.53003,-3.34378 -4.72223,-3.37399 -7.64587,-3.60705 -2.943,-0.23462 -4.61176,1.64425 -5.30945,4.3135 -0.73413,2.80893 0.39764,4.80436 2.96893,6.12732 5.58472,2.87345 9.22205,0.70761 9.98639,-6.83377 m 36.14801,63.2594 c -3.91559,0.62647 -4.98614,3.19214 -3.08734,7.39935 1.29492,2.86921 7.30554,4.98481 9.90472,3.27173 3.2381,-2.13421 2.51618,-5.24701 1.05048,-7.92706 -1.44928,-2.65009 -4.54144,-2.24744 -7.86786,-2.74402 m -87.55011,-3.95636 c -3.11389,0.92377 -8.12036,-0.60534 -7.58569,5.22058 0.30139,3.28327 1.85553,6.1051 5.8269,6.28693 2.36518,0.10821 5.05329,0.1665 5.87787,-2.54102 1.0943,-3.59356 0.38867,-6.90582 -4.11908,-8.96649 m 17.28284,-0.88061 c -1.87073,0.44561 -2.93115,1.42468 -2.4151,3.52703 0.7005,2.8537 0.83569,6.06995 4.14801,7.37946 2.03784,0.80566 4.29645,1.09161 6.21729,-0.1225 2.24267,-1.41748 1.50952,-3.83612 1.23931,-5.89319 -0.67572,-5.14392 -4.2705,-5.59411 -9.18951,-4.8908 m 97.86084,-42.31699 c 0.59961,0.97562 1.06146,2.07867 1.8244,2.90314 2.33093,2.51895 5.33051,4.07394 8.2226,1.57123 3.03283,-2.62452 1.35138,-5.76303 -0.71881,-8.28516 -0.89118,-1.08576 -2.30005,-1.85791 -3.61756,-2.45563 -1.88232,-0.85397 -3.84564,-0.89691 -5.5401,0.60227 -1.71039,1.51327 -1.14331,3.24139 -0.17053,5.66415 m -98.44061,-10.35617 c 1.48852,0.93475 3.14685,1.1532 4.81634,0.87204 2.56348,-0.43173 4.94263,-1.19254 5.11981,-4.44244 0.17603,-3.22864 -1.5874,-5.06193 -4.50238,-5.66413 -2.40069,-0.49603 -5.26336,-1.22806 -7.00274,1.09436 -1.94013,2.59043 -1.20972,5.35086 1.56897,8.14017 m 129.69012,18.36099 c -0.55688,-2.69656 -2.04376,-4.68948 -4.88867,-4.78244 -2.96625,-0.0969 -2.86542,2.69632 -3.50092,4.61637 -0.89038,2.69046 -2.6856,3.53701 -5.36377,3.06112 -1.11096,-0.19742 -2.31671,-0.95801 -4.10272,0.28061 4.32056,1.07834 7.9494,2.0683 11.61774,2.87967 5.39392,1.19309 6.26867,0.41889 6.23834,-6.05533 z"
   id="path8"
   style="fill:#000000" />
<path
   fill="#000000"
   opacity="1"
   stroke="none"
   d="m 228.93828,345.21145 c -3.31784,1.25403 -6.23547,2.49469 -9.24313,3.45263 -5.21912,1.66233 -6.00068,1.08939 -6.59104,-4.32086 -0.60437,-5.53854 -2.04971,-6.58902 -6.46548,-4.69922 -4.80527,2.05652 -5.26679,4.31925 -1.6915,8.19913 0.86804,0.94202 2.45743,1.20935 2.69745,3.29798 -12.47223,5.79211 -25.79422,9.31475 -40.46625,13.57861 2.9494,-3.70499 8.35269,-5.11881 4.62296,-9.64231 -2.61197,-3.16781 -6.50388,-2.39279 -9.08643,-0.43237 -5.67209,4.30573 2.58929,6.53659 1.95862,10.63645 -3.03198,2.55948 -7.06726,2.7489 -10.97067,3.0545 -2.87894,0.22537 -2.64966,-2.45096 -3.19693,-4.24606 -1.08149,-3.54728 -2.54038,-6.14032 -7.08021,-4.47629 -5.13803,1.8833 -5.65911,2.95322 -2.97473,7.91159 0.54425,1.00522 1.44031,1.87292 1.14338,3.43729 -2.99979,2.02768 -6.54856,1.31384 -9.95096,1.35421 -1.53247,0.0182 -2.21787,-1.10348 -2.78617,-2.43856 -3.18682,-7.48676 -5.38885,-8.18924 -12.55365,-4.0878 -0.36599,2.93881 3.04667,4.26583 3.12433,7.45416 -3.68249,1.75864 -7.67325,3.69311 -11.45916,0.75033 -3.96769,-3.08404 -5.64344,-11.51046 -3.78663,-15.05938 1.08219,-2.06848 3.07303,-2.5145 5.0383,-2.74054 36.4979,-4.19812 70.80307,-16.3458 105.03885,-28.79816 8.2717,-3.00864 16.62445,-5.84396 25.33176,-7.43463 3.52667,-0.64426 6.03854,-0.47446 6.37625,4.20355 0.28812,3.99048 3.47986,6.59741 6.87692,9.53769 -8.16809,3.94333 -15.85714,7.65537 -23.90588,11.50806 m -0.13736,-13.7988 c -3.12467,0.77365 -5.84348,2.1134 -5.22397,5.94037 0.4357,2.69162 2.62689,3.71365 5.20752,3.55649 2.74484,-0.16721 5.65915,-0.80854 5.89175,-4.07706 0.22715,-3.19131 -1.77346,-5.18118 -5.8753,-5.4198 m -36.06967,18.79813 c -0.94574,-2.5578 -2.01419,-5.24387 -5.4534,-4.30085 -2.29373,0.62894 -5.21778,1.53629 -4.77274,4.68656 0.33307,2.35754 1.52921,5.12411 4.43353,5.21701 3.02521,0.0967 6.06559,-0.68369 5.79261,-5.60272 z"
   id="path10"
   style="fill:#000000" />
<path
   fill="#000000"
   opacity="1"
   stroke="none"
   d="m 271.9135,387.58126 c -15.50952,-10.82047 -24.73862,-27.14774 -38.73416,-39.5964 9.51455,-6.38074 19.26901,-9.03553 29.03979,-11.63224 2.29349,-0.6095 3.2576,1.28107 4.34198,2.67636 6.84574,8.80847 13.68598,17.62189 20.44214,26.49903 4.55936,5.99072 4.24045,7.5971 -1.94772,11.91449 -1.08066,0.75393 -2.32675,1.32983 -2.95426,2.9219 1.18833,2.71314 6.97092,3.8165 4.17618,8.05292 -2.21558,3.3584 -5.9942,5.36188 -10.3439,4.97851 -3.16788,-0.27923 -3.85712,-2.7272 -4.02005,-5.81457 z"
   id="path12"
   style="fill:#000000" />
<path
   fill="#000000"
   opacity="1"
   stroke="none"
   d="m 293.11336,361.15905 c -5.93067,-7.60944 -12.11963,-14.57196 -17.10031,-22.47241 -2.86243,-4.54041 -2.77747,-5.36521 1.97641,-7.3172 6.16211,-2.53028 12.54712,-4.37103 18.99157,-6.02512 4.46125,-1.14514 7.47406,0.42801 9.0466,4.7218 2.10813,5.75623 3.02594,11.48236 0.23469,17.3804 -1.84235,3.89301 -3.41154,7.93213 -4.85157,11.99494 -2.35269,6.63751 -2.97153,6.84302 -8.29739,1.71759 z"
   id="path14"
   style="fill:#000000" />
<path
   fill="#000000"
   opacity="1"
   stroke="none"
   d="m 124.33998,533.67763 c 7.13019,2.19715 13.24829,5.55317 19.17826,9.29029 3.06665,1.93255 4.88748,4.46942 2.18612,7.78167 -2.66711,3.27015 -5.80414,1.59754 -7.64886,-0.79919 -4.58173,-5.95276 -11.41431,-7.75488 -17.67871,-10.73596 -2.35587,-1.12103 -4.1894,0.37268 -6.28067,0.3435 -12.19883,-0.1704 -21.304356,6.6977 -30.278626,13.61329 -6.52246,5.02636 -9.09142,12.52313 -11.38567,20.07281 -1.4116,4.64508 -2.14631,9.59149 -5.41346,13.43823 -1.52542,-0.66864 -1.5463,-1.67389 -1.51076,-2.69177 0.60355,-17.28503 6.78839,-31.58673 21.5255,-41.6806 6.21533,-4.25714 13.374076,-6.62775 19.630826,-10.76367 2.57312,-1.70099 5.90478,-1.66126 8.68035,-0.29071 2.77762,1.37152 5.7136,1.64697 8.9957,2.42211 z"
   id="path16"
   style="fill:#000000" />
<path
   fill="#000000"
   opacity="1"
   stroke="none"
   d="m 164.98439,576.36825 c -8.28845,-4.78052 -11.79526,-12.93219 -16.76843,-19.53339 1.18136,-1.79303 2.37784,-2.07794 3.16605,-1.65973 6.3655,3.37787 13.71771,5.67426 16.68997,13.20417 1.68603,4.27148 3.88534,7.49096 8.0675,10.08837 6.1518,3.82062 9.96906,10.63044 16.30844,14.48359 0.13422,0.0815 0.29776,0.2442 0.30893,0.38037 0.48926,5.95977 3.06696,10.8164 8.64362,14.23883 -6.00525,2.28552 -10.3711,0.2254 -11.25473,-4.99958 -0.66144,-3.91125 -2.59012,-6.30426 -6.10785,-7.75579 -8.65668,-3.57196 -15.34522,-9.21381 -19.0535,-18.44684 z"
   id="path18"
   style="fill:#000000" />
<path
   fill="#000000"
   opacity="1"
   stroke="none"
   d="m 370.27705,486.29342 c -0.57672,7.24701 -1.08886,14.03766 -1.77795,20.8103 -0.27783,2.73029 -1.11017,5.84174 -4.44373,5.64765 -3.73547,-0.21753 -3.05352,-3.86078 -3.18151,-6.30494 -0.21729,-4.14929 0.062,-8.32287 0.0788,-12.48645 0.0211,-5.21863 -0.96844,-9.94238 -6.04071,-12.8236 -2.36694,-1.34449 -2.63684,-3.28284 -0.88305,-5.40992 3.29534,-3.9967 7.21606,-7.35211 11.20721,-10.60144 1.58264,-1.28845 3.53564,-1.84833 5.54626,-0.45721 2.1529,1.4895 1.008,3.31903 0.46955,4.9389 -1.77472,5.33917 -1.95636,10.73694 -0.97486,16.68671 z"
   id="path20"
   style="fill:#000000" />
<path
   fill="#000000"
   opacity="1"
   stroke="none"
   d="m 573.55385,252.55569 c -6.29273,3.40649 -11.06989,7.59485 -13.82019,14.12399 -0.85211,2.02304 -3.59308,3.31812 -5.59772,4.76901 -2.04077,1.47705 -4.09369,1.03263 -5.90185,-0.56808 -1.78321,-1.57874 -1.59601,-3.51017 -0.78547,-5.47553 1.9328,-4.68646 5.72419,-7.2738 10.37232,-8.5394 2.83844,-0.77282 4.11591,-2.17157 4.3031,-5.13009 0.11035,-1.74384 0.82703,-3.59461 1.74432,-5.11084 1.72113,-2.84485 4.30146,-4.39783 7.52936,-2.46323 3.0987,1.85715 5.21637,4.34546 2.15613,8.39417 z"
   id="path22"
   style="fill:#000000" />
<path
   fill="#000000"
   opacity="1"
   stroke="none"
   d="m 331.90553,564.04598 c -2.48205,1.97522 -4.78503,3.61017 -6.90445,5.45593 -3.12854,2.72474 -5.3974,1.50788 -7.34365,-1.39605 -1.93134,-2.88166 -2.98179,-5.664 1.01953,-7.87 2.46237,-1.35742 4.85705,-2.85144 7.20169,-4.40551 3.39651,-2.25116 6.41653,-2.41736 9.00638,1.1997 2.65167,3.70355 -1.43485,4.6662 -2.9795,7.01593 z"
   id="path24"
   style="fill:#000000" />
<path
   fill="#000000"
   opacity="1"
   stroke="none"
   d="m 270.96578,594.40267 c -2.70902,0.37274 -5.00672,0.96826 -7.29072,0.9195 -2.901,-0.0618 -4.36856,-2.03229 -4.78479,-4.81952 -0.3995,-2.67548 1.09415,-3.83594 3.38599,-4.68488 3.93311,-1.45673 8.01288,-2.12298 12.12943,-2.62994 3.04971,-0.37567 5.22909,0.76935 5.8262,4.00079 0.6015,3.25543 -1.25626,4.98554 -4.02634,5.94116 -1.56079,0.53839 -3.21191,0.81488 -5.23977,1.27289 z"
   id="path26"
   style="fill:#000000" />
<path
   fill="#000000"
   opacity="1"
   stroke="none"
   d="m 300.28795,583.56502 c -3.62057,1.58423 -7.31155,5.44983 -10.10519,0.22266 -2.62812,-4.9176 1.76303,-7.0047 5.15869,-9.11414 1.97323,-1.22583 3.9591,-2.43542 5.98358,-3.57354 2.39721,-1.34772 4.78018,-1.83136 6.43365,1.05865 1.59766,2.79248 2.48023,5.57013 -1.17614,7.6427 -2.01828,1.14405 -3.96937,2.40656 -6.29459,3.76367 z"
   id="path28"
   style="fill:#000000" />
<path
   fill="#000000"
   opacity="1"
   stroke="none"
   d="m 53.826344,500.88302 c 2.96109,-2.39368 5.4471,-5.17767 9.463,-3.11804 2.51852,1.29174 3.39667,2.90124 1.58159,5.53009 -3.06386,4.43744 -6.916,7.99334 -11.4599,10.83245 -1.67777,1.04828 -3.3745,1.38526 -4.95563,-0.23467 -1.41809,-1.45289 -1.81087,-3.10181 -0.98213,-4.99445 1.36206,-3.11066 3.72265,-5.43738 6.35307,-8.01538 z"
   id="path30"
   style="fill:#000000" />
<path
   fill="#000000"
   opacity="1"
   stroke="none"
   d="m 361.8091,514.49386 c 5.25696,5.03235 3.98358,13.38672 -2.0871,16.26062 -4.38977,2.07812 -7.39276,0.2655 -7.62262,-4.60114 -0.36462,-7.72003 1.70282,-10.32403 9.70972,-11.65948 z"
   id="path32"
   style="fill:#000000" />
<path
   fill="#000000"
   opacity="1"
   stroke="none"
   d="m 88.004814,483.99758 c -3.11887,2.53351 -5.94312,4.85053 -8.84668,7.06335 -2.43381,1.85486 -4.88846,2.09809 -7.01863,-0.49493 -2.15496,-2.62323 -2.74724,-5.38495 -0.009,-7.96918 2.6948,-2.54351 5.89505,-4.41851 9.46045,-5.34082 4.56406,-1.18072 7.57151,1.88306 6.41416,6.74158 z"
   id="path34"
   style="fill:#000000" />
<path
   fill="#000000"
   opacity="1"
   stroke="none"
   d="m 270.24385,314.11022 c 3.50238,6.00794 2.61676,9.6301 -2.6333,12.13382 -3.87579,1.84833 -9.36258,-0.76511 -11.33917,-5.38815 -0.95365,-2.23056 -0.0953,-4.17264 1.65167,-5.23938 3.68536,-2.25037 7.5835,-4.31033 12.3208,-1.50629 z"
   id="path36"
   style="fill:#000000" />
<path
   fill="#000000"
   opacity="1"
   stroke="none"
   d="m 574.5638,235.54842 c -1.11981,-5.42776 1.51867,-9.02304 5.08185,-11.93777 2.48095,-2.02945 5.38708,-1.60211 7.77752,0.48367 2.38001,2.07669 2.27344,4.48703 0.72876,7.1723 -4.45788,7.74915 -8.17999,9.09403 -13.58813,4.2818 z"
   id="path38"
   style="fill:#000000" />
<path
   fill="#000000"
   opacity="1"
   stroke="none"
   d="m 26.222584,604.91378 c -0.88271,4.04822 -3.85196,4.20312 -6.67006,4.24737 -2.84657,0.0446 -3.97688,-2.19982 -4.58458,-4.48461 -0.58906,-2.21466 -0.85658,-4.53748 -1.04411,-6.83082 -0.25684,-3.14086 1.34563,-5.05627 4.42081,-5.55206 3.20831,-0.51715 5.66333,0.78028 6.54916,3.91553 0.75622,2.67657 0.93292,5.51697 1.32878,8.70459 z"
   id="path40"
   style="fill:#000000" />
<path
   fill="#000000"
   opacity="1"
   stroke="none"
   d="m 531.22151,277.13967 c 1.67823,-0.77484 2.98798,-1.56656 4.40479,-1.89151 2.38281,-0.54639 4.15643,0.68369 5.44336,2.58649 1.36932,2.02447 0.66632,3.76547 -0.98322,5.25299 -1.95849,1.76611 -4.01178,3.43133 -5.91314,5.25583 -2.95801,2.8385 -5.53309,2.94018 -8.3136,-0.39286 -2.8664,-3.43594 -1.06464,-5.71554 1.47851,-7.94534 1.1131,-0.97592 2.37085,-1.78674 3.8833,-2.8656 z"
   id="path42"
   style="fill:#000000" />
<path
   fill="#000000"
   opacity="1"
   stroke="none"
   d="m 440.03487,316.2029 c 3.93377,5.97867 2.68933,8.98706 -3.86933,10.29465 -2.09802,0.4183 -4.16986,1.15762 -6.36901,0.76849 -2.72291,-0.48169 -4.56013,-1.88308 -4.90894,-4.79058 -0.34424,-2.86982 0.76483,-4.91346 3.61292,-5.66764 3.65942,-0.96902 7.33551,-2.18533 11.53436,-0.60492 z"
   id="path44"
   style="fill:#000000" />
<path
   fill="#000000"
   opacity="1"
   stroke="none"
   d="m 296.21175,306.75924 c 5.18737,5.68359 4.0448,9.39236 -2.9379,10.92071 -6.61764,1.44846 -9.95483,0.29316 -10.63712,-3.6824 -0.74005,-4.31198 2.9343,-7.46896 9.30368,-7.85327 1.28827,-0.0777 2.60221,0.27002 4.27134,0.61496 z"
   id="path46"
   style="fill:#000000" />
<path
   fill="#000000"
   opacity="1"
   stroke="none"
   d="m 14.472154,574.06258 c 1.24088,-4.05383 3.05976,-7.13171 7.50841,-5.8089 4.05786,1.20655 4.17296,4.65418 3.5313,8.18506 -0.23658,1.30188 -0.25263,2.66431 -0.6424,3.91388 -1.00175,3.21173 -3.17386,5.1485 -6.65332,4.77991 -3.64679,-0.38623 -4.2924,-3.20734 -4.29307,-6.22687 -3.2e-4,-1.48163 0.27381,-2.96326 0.54908,-4.84308 z"
   id="path48"
   style="fill:#000000" />
<path
   fill="#000000"
   opacity="1"
   stroke="none"
   d="m 28.321214,557.48177 c -2.24144,2.86872 -4.69642,3.87329 -7.58287,1.89228 -2.79236,-1.91651 -2.75927,-4.71479 -1.76845,-7.5951 0.43105,-1.25311 0.96244,-2.48291 1.56614,-3.66302 1.61067,-3.14819 3.62693,-5.93482 7.73301,-4.26569 4.40218,1.78955 3.55873,5.49121 2.57282,8.9173 -0.44847,1.55847 -1.51457,2.93921 -2.52065,4.71423 z"
   id="path50"
   style="fill:#000000" />
<path
   fill="#000000"
   opacity="1"
   stroke="none"
   d="m 612.68562,222.2116 c -3.23712,0.31403 -6.15191,-0.28104 -6.79968,-3.26114 -0.91601,-4.21377 1.43012,-7.72265 4.27631,-10.60812 2.12243,-2.15177 4.85742,-1.6901 7.4237,-0.63196 1.55872,0.64267 2.37427,1.98413 2.05951,3.58679 -0.86023,4.37876 -1.49139,8.97562 -6.95984,10.91443 z"
   id="path52"
   style="fill:#000000" />
<path
   fill="#000000"
   opacity="1"
   stroke="none"
   d="m 620.70845,195.75191 c -4.50824,1.86856 -8.00372,0.98313 -9.70483,-3.31115 -1.78791,-4.51337 0.35956,-9.97538 3.84625,-11.10608 5.08758,-1.64981 8.7998,2.01205 8.46039,8.33432 -0.11865,2.20855 -0.61084,4.26199 -2.60181,6.08291 z"
   id="path54"
   style="fill:#000000" />
<path
   fill="#000000"
   opacity="1"
   stroke="none"
   d="m 610.17134,154.18929 c 5.38477,1.61319 8.14911,6.80728 6.53559,11.48667 -0.77125,2.23663 -2.22761,3.58416 -4.64301,3.83786 -2.38672,0.2507 -4.0827,-0.61957 -5.33368,-2.72306 -3.79968,-6.38879 -2.89905,-10.26104 3.4411,-12.60147 z"
   id="path56"
   style="fill:#000000" />
<path
   fill="#000000"
   opacity="1"
   stroke="none"
   d="m 506.2231,293.24801 c 1.63397,-0.87042 2.90179,-1.70624 4.29437,-2.15244 2.91675,-0.93451 5.54358,-0.74838 7.1192,2.46918 1.62525,3.31897 -0.0185,5.3367 -2.68737,6.91046 -1.55475,0.91681 -3.2071,1.66895 -4.8216,2.48325 -2.56659,1.29437 -4.9267,1.8529 -6.79761,-1.22412 -1.65588,-2.72342 -1.2539,-4.98206 1.04737,-7.02979 0.49188,-0.43771 1.02289,-0.83148 1.84564,-1.45654 z"
   id="path58"
   style="fill:#000000" />
<path
   fill="#000000"
   opacity="1"
   stroke="none"
   d="m 397.08028,324.45016 c 2.41284,-4.52552 9.09149,-6.73258 13.22497,-4.74655 3.16791,1.52209 3.93817,5.86407 1.48011,8.34323 -2.06092,2.07861 -11.11994,2.65341 -13.25855,0.82379 -1.23401,-1.05579 -1.57294,-2.47061 -1.44653,-4.42047 z"
   id="path60"
   style="fill:#000000" />
<path
   fill="#000000"
   opacity="1"
   stroke="none"
   d="m 623.57283,323.83663 c -3.66186,-3.80789 -3.28711,-7.62912 -0.40527,-11.01077 2.13751,-2.50821 5.26886,-2.0174 7.74926,-0.33466 3.04597,2.06635 4.35419,5.05649 2.46625,8.6319 -2.06366,3.9082 -5.2489,4.83231 -9.81024,2.71353 z"
   id="path62"
   style="fill:#000000" />
<path
   fill="#000000"
   opacity="1"
   stroke="none"
   d="m 29.628074,531.47677 c 1.49716,-3.95465 3.54344,-7.17285 6.32956,-9.87354 1.82873,-1.77264 3.91934,-2.6549 6.22847,-0.81097 2.1788,1.73987 2.35164,3.91235 1.00268,6.23212 -1.59903,2.74975 -3.48732,5.32263 -5.92807,7.35754 -3.43489,2.86371 -5.85168,1.99316 -7.63264,-2.90515 z"
   id="path64"
   style="fill:#000000" />
<path
   fill="#000000"
   opacity="1"
   stroke="none"
   d="m 41.619984,643.74703 c 1.23268,2.45722 1.47643,4.3764 -0.79713,6.03217 -2.26423,1.64898 -4.42246,1.25879 -6.48386,-0.13416 -3.38641,-2.28833 -4.84598,-5.82611 -5.74432,-9.62512 -0.4078,-1.72449 0.56041,-2.84491 2.00615,-3.6217 1.764,-0.94782 3.50364,-0.95551 5.19471,0.17285 2.57233,1.71643 4.29094,4.1427 5.82445,7.17596 z"
   id="path66"
   style="fill:#000000" />
<path
   fill="#000000"
   opacity="1"
   stroke="none"
   d="m 341.6891,540.91854 c 1.71167,-1.60571 3.10913,-3.05762 4.73163,-4.18579 1.45612,-1.01251 3.20758,-2.42676 4.99713,-1.20197 1.64209,1.12378 1.47742,3.30146 1.35157,5.08179 -0.33625,4.75549 -3.49469,7.88776 -7.0235,10.40698 -2.65625,1.89637 -6.47235,-1.46307 -6.2154,-5.27679 0.11505,-1.70728 0.91462,-3.18219 2.15857,-4.82422 z"
   id="path68"
   style="fill:#000000" />
<path
   fill="#000000"
   opacity="1"
   stroke="none"
   d="m 620.89607,293.03378 c 0.0278,-1.23969 -0.0613,-2.10084 0.14502,-2.88413 0.87677,-3.32745 2.04761,-6.63132 6.33905,-6.32379 4.19751,0.30081 5.24445,3.61304 5.56598,7.06616 0.29425,3.15988 -3.40741,8.0231 -6.18121,8.06253 -3.53003,0.0502 -5.36243,-2.11356 -5.86884,-5.92077 z"
   id="path70"
   style="fill:#000000" />
<path
   fill="#000000"
   opacity="1"
   stroke="none"
   d="m 459.61739,310.63906 c 2.05334,-0.43381 3.66015,-0.259 5.20849,0.46472 2.26898,1.06052 2.82581,3.15561 2.97809,5.32263 0.13898,1.97681 -1.38891,2.88248 -2.99658,3.46125 -2.60736,0.93872 -5.16455,2.55825 -8.04956,1.79425 -2.58472,-0.68445 -4.22235,-2.69748 -4.62817,-5.29969 -0.37165,-2.38238 1.57348,-3.45596 3.38177,-4.32592 1.1795,-0.56748 2.47699,-0.88959 4.10596,-1.41724 z"
   id="path72"
   style="fill:#000000" />
<path
   fill="#000000"
   opacity="1"
   stroke="none"
   d="m 603.22261,132.02451 c 1.12342,1.86736 2.22839,3.37718 2.74982,5.06706 1.18262,3.83326 -0.6283,6.53983 -4.52301,7.15262 -2.948,0.46375 -5.32764,-0.45071 -6.41834,-3.33389 -1.16528,-3.08014 -2.46991,-6.47606 0.28308,-9.27472 2.3191,-2.35745 5.10425,-1.76546 7.90845,0.38893 z"
   id="path74"
   style="fill:#000000" />
<path
   fill="#000000"
   opacity="1"
   stroke="none"
   d="m 27.955064,616.1954 c 2.36055,1.86248 3.22947,4.20739 3.97339,6.59881 1.4207,4.56702 -0.60019,7.07245 -5.37173,6.72467 -3.95075,-0.28796 -7.86522,-5.77844 -6.76537,-10.07684 1.05763,-4.13342 4.14882,-4.73114 8.16371,-3.24664 z"
   id="path76"
   style="fill:#000000" />
<path
   fill="#000000"
   opacity="1"
   stroke="none"
   d="m 322.79201,311.9031 c -2.52561,3.08682 -5.86484,2.92569 -8.92685,3.07162 -2.67099,0.12729 -4.3544,-1.61093 -4.3906,-4.36847 -0.0343,-2.61505 0.79102,-5.12564 3.35599,-6.19891 3.21607,-1.34567 6.62393,-1.06311 9.525,0.87869 2.44079,1.63373 1.58435,4.06281 0.43646,6.61707 z"
   id="path78"
   style="fill:#000000" />
<path
   fill="#000000"
   opacity="1"
   stroke="none"
   d="m 620.62819,265.54046 c -0.18768,-2.97461 -2.73395,-6.02893 0.72906,-7.95307 2.4361,-1.35351 5.36518,-1.14834 7.46821,0.85746 2.59869,2.47848 3.08685,5.85565 2.24963,9.22284 -0.55701,2.24023 -2.59644,2.84741 -4.73834,2.8399 -3.08936,-0.0108 -4.9718,-1.54233 -5.70856,-4.96713 z"
   id="path80"
   style="fill:#000000" />
<path
   fill="#000000"
   opacity="1"
   stroke="none"
   d="m 623.84413,363.34225 c 4.08405,4.48556 3.10755,10.04995 -1.94324,12.26052 -3.43133,1.50177 -5.38647,-0.75125 -6.70007,-3.40744 -1.68268,-3.40243 0.52948,-8.25491 4.02411,-9.50607 1.53638,-0.55005 2.93305,-0.31711 4.6192,0.65299 z"
   id="path82"
   style="fill:#000000" />
<path
   fill="#000000"
   opacity="1"
   stroke="none"
   d="m 485.10603,302.96474 c 3.77277,-1.22842 6.74225,-1.07074 7.99939,2.93842 1.05664,3.36966 -1.65454,6.27899 -7.01391,8.06525 -3.70361,1.23437 -5.4928,-1.12623 -6.466,-3.77515 -1.63618,-4.45343 2.30053,-5.50589 5.48052,-7.22852 z"
   id="path84"
   style="fill:#000000" />
<path
   fill="#000000"
   opacity="1"
   stroke="none"
   d="m 23.556814,413.65133 c 0.7108,0.98065 1.23094,1.64013 1.58633,2.37891 1.68766,3.5083 1.02002,6.57012 -2.26591,8.64434 -2.25981,1.42646 -4.93143,1.51337 -6.80382,-0.67749 -2.42067,-2.83246 -2.42097,-6.07635 -0.36711,-9.19391 1.99826,-3.03302 4.54668,-3.64709 7.85051,-1.15185 z"
   id="path86"
   style="fill:#000000" />
<path
   fill="#000000"
   opacity="1"
   stroke="none"
   d="m 624.43184,351.23666 c -5.60986,-3.44858 -6.20575,-8.22116 -1.92627,-12.21531 1.65576,-1.54538 3.46844,-1.83926 5.50525,-0.95681 2.12518,0.9208 4.04376,2.43658 3.64203,4.80969 -0.66516,3.93005 -1.7602,7.92285 -7.22101,8.36243 z"
   id="path88"
   style="fill:#000000" />
<path
   fill="#000000"
   opacity="1"
   stroke="none"
   d="m 33.051994,476.08065 c -1.13674,0.29919 -1.95652,0.56952 -2.76165,0.53137 -3.22613,-0.1532 -5.24702,-1.98199 -6.04524,-4.98773 -0.76738,-2.88965 0.32865,-5.32361 2.84113,-6.8219 2.44104,-1.45557 4.96986,-0.79852 6.82954,1.09992 2.1155,2.1596 2.66991,4.93853 1.38666,7.79608 -0.38332,0.85345 -1.27046,1.48077 -2.25044,2.38226 z"
   id="path90"
   style="fill:#000000" />
<path
   fill="#000000"
   opacity="1"
   stroke="none"
   d="m 27.711084,441.56478 c 0.61982,1.0694 1.12057,1.78278 1.30218,2.56976 0.83203,3.60511 -0.14957,6.66303 -3.40013,8.53833 -2.34596,1.35334 -4.18315,-0.20172 -5.52394,-1.97088 -2.22551,-2.93647 -2.64186,-6.20661 -0.16667,-9.13178 2.19442,-2.5932 4.92434,-2.19366 7.78856,-0.005 z"
   id="path92"
   style="fill:#000000" />
<path
   fill="#000000"
   opacity="1"
   stroke="none"
   d="m 614.4919,387.61822 c 3.4906,-1.93558 5.84662,-0.88706 7.17151,2.2229 1.45019,3.40408 -0.16144,6.37997 -2.59674,8.44656 -2.23725,1.89844 -4.40216,-0.0978 -6.11554,-1.61926 -2.61615,-2.32306 -2.3346,-4.92325 -0.1944,-7.45825 0.4256,-0.50409 0.95258,-0.92261 1.73517,-1.59195 z"
   id="path94"
   style="fill:#000000" />
<path
   fill="#000000"
   opacity="1"
   stroke="none"
   d="m 20.901934,398.19417 c -2.57887,2.85553 -5.14342,3.03864 -7.47763,0.52381 -2.26915,-2.4447 -2.30101,-5.46179 -0.63913,-8.21579 1.45331,-2.40839 3.80573,-3.08206 6.42719,-1.79682 3.21599,1.57666 3.89631,4.22953 2.86087,7.46262 -0.19626,0.61285 -0.61214,1.15534 -1.1713,2.02618 z"
   id="path96"
   style="fill:#000000" />
<path
   fill="#000000"
   opacity="1"
   stroke="none"
   d="m 598.08711,205.2633 c -0.76013,1.87982 -1.3366,3.44089 -2.08935,4.91171 -0.86334,1.68661 -2.01599,3.15927 -4.24201,2.66165 -2.22107,-0.49649 -3.40362,-2.10779 -3.61505,-4.24237 -0.34497,-3.48358 1.17902,-6.15768 4.24292,-7.77982 3.89044,-2.05975 5.90088,-0.59319 5.70349,4.44883 z"
   id="path98"
   style="fill:#000000" />
<path
   fill="#000000"
   opacity="1"
   stroke="none"
   d="m 250.17589,590.12472 c 1.60184,3.29437 1.2887,5.65631 -2.34036,6.34387 -3.40647,0.64538 -6.96082,0.69665 -8.51349,-3.19202 -1.05619,-2.64514 0.4823,-4.59485 3.18481,-5.13147 2.63471,-0.52337 5.34329,-0.63147 7.66904,1.97962 z"
   id="path100"
   style="fill:#000000" />
<path
   fill="#000000"
   opacity="1"
   stroke="none"
   d="m 605.9493,235.17855 c 2.87518,3.82602 1.21374,9.17151 -2.83332,10.49078 -1.57965,0.5149 -2.96142,0.26258 -4.10827,-0.95623 -1.15461,-1.2269 -1.39002,-2.67881 -0.62958,-4.14924 1.52051,-2.94006 3.68866,-5.10806 7.57117,-5.38531 z"
   id="path102"
   style="fill:#000000" />
<text
   xml:space="preserve"
   style="font-style:normal;font-weight:normal;font-size:40px;line-height:1.25;font-family:sans-serif;fill:#000000;fill-opacity:1;stroke:none"
   x="-55.775684"
   y="257.74979"
   id="text113"><tspan
     sodipodi:role="line"
     id="tspan111"
     x="-55.775684"
     y="257.74979" /></text><text
   xml:space="preserve"
   style="font-style:normal;font-variant:normal;font-weight:normal;font-stretch:normal;font-size:257.37px;line-height:1.25;font-family:Metropolis;-inkscape-font-specification:Metropolis;fill:#000000;fill-opacity:1;stroke:#ffffff;stroke-width:5.69654;stroke-miterlimit:4;stroke-dasharray:none;stroke-opacity:1"
   x="818.96558"
   y="366.18796"
   id="text74"
   transform="scale(0.90217159,1.1084366)"><tspan
     sodipodi:role="line"
     id="tspan72"
     x="818.96558"
     y="366.18796"
     style="font-style:normal;font-variant:normal;font-weight:normal;font-stretch:normal;font-family:Metropolis;-inkscape-font-specification:Metropolis;fill:#000000;fill-opacity:1;stroke:#ffffff;stroke-width:5.69654;stroke-miterlimit:4;stroke-dasharray:none;stroke-opacity:1">AGUJA </tspan><tspan
     sodipodi:role="line"
     x="818.96558"
     y="687.90045"
     style="font-style:normal;font-variant:normal;font-weight:normal;font-stretch:normal;font-family:Metropolis;-inkscape-font-specification:Metropolis;fill:#000000;fill-opacity:1;stroke:#ffffff;stroke-width:5.69654;stroke-miterlimit:4;stroke-dasharray:none;stroke-opacity:1"
     id="tspan884">FILMICA</tspan></text></svg>
