<?xml version="1.0" encoding="UTF-8" standalone="no"?>
<svg
   xmlns:dc="http://purl.org/dc/elements/1.1/"
   xmlns:cc="http://creativecommons.org/ns#"
   xmlns:rdf="http://www.w3.org/1999/02/22-rdf-syntax-ns#"
   xmlns:svg="http://www.w3.org/2000/svg"
   xmlns="http://www.w3.org/2000/svg"
   xmlns:sodipodi="http://sodipodi.sourceforge.net/DTD/sodipodi-0.dtd"
   xmlns:inkscape="http://www.inkscape.org/namespaces/inkscape"
   version="1.1"
   width="659.63812"
   height="406.34348"
   style="clip-rule:evenodd;fill-rule:evenodd;image-rendering:optimizeQuality;shape-rendering:geometricPrecision;text-rendering:geometricPrecision"
   id="svg102"
   sodipodi:docname="CriptoWarmis.svg"
   inkscape:version="1.0.1 (3bc2e813f5, 2020-09-07)">
  <metadata
     id="metadata108">
    <rdf:RDF>
      <cc:Work
         rdf:about="">
        <dc:format>image/svg+xml</dc:format>
        <dc:type
           rdf:resource="http://purl.org/dc/dcmitype/StillImage" />
        <dc:title></dc:title>
      </cc:Work>
    </rdf:RDF>
  </metadata>
  <defs
     id="defs106" />
  <sodipodi:namedview
     pagecolor="#ffffff"
     bordercolor="#666666"
     borderopacity="1"
     objecttolerance="10"
     gridtolerance="10"
     guidetolerance="10"
     inkscape:pageopacity="0"
     inkscape:pageshadow="2"
     inkscape:window-width="1920"
     inkscape:window-height="992"
     id="namedview104"
     showgrid="false"
     inkscape:zoom="0.96750232"
     inkscape:cx="142.02496"
     inkscape:cy="249.6856"
     inkscape:window-x="-8"
     inkscape:window-y="-8"
     inkscape:window-maximized="1"
     inkscape:current-layer="svg102"
     inkscape:pagecheckerboard="false" />
  <g
     id="g8"
     transform="translate(-209.53815,-153.3144)">
    <path
       style="opacity:1"
       fill="#8f85fc"
       d="m 518.5,414.5 c -2.015,-1.424 -4.348,-2.09 -7,-2 -36.325,-7.918 -64.492,-27.585 -84.5,-59 -24.464,-43.323 -25.798,-87.323 -4,-132 35.942,-57.373 87.109,-78.54 153.5,-63.5 48.426,15.757 78.926,48.257 91.5,97.5 9.981,54.736 -6.519,99.57 -49.5,134.5 -29.978,21.458 -63.312,29.625 -100,24.5 z"
       id="path6" />
  </g>
  <g
     id="g12"
     transform="translate(-209.53815,-153.3144)">
    <path
       style="opacity:1"
       fill="#fefefe"
       d="m 529.5,160.5 c 63.414,-0.243 106.247,29.09 128.5,88 12.346,48.843 0.846,91.01 -34.5,126.5 -34.752,29.685 -74.419,39.018 -119,28 -61.781,-22.831 -91.281,-67.331 -88.5,-133.5 12.253,-63.088 50.086,-99.421 113.5,-109 z"
       id="path10" />
  </g>
  <g
     id="g16"
     transform="translate(-209.53815,-153.3144)">
    <path
       style="opacity:1"
       fill="#8f85fc"
       d="m 538.5,199.5 c 29.263,27.595 57.929,55.929 86,85 -28,28.667 -56.333,57 -85,85 -28.667,-28 -57,-56.333 -85,-85 28.021,-28.354 56.021,-56.688 84,-85 z"
       id="path14" />
  </g>
  <g
     id="g20"
     transform="translate(-209.53815,-153.3144)">
    <path
       style="opacity:1"
       fill="#fdfcfe"
       d="m 538.5,210.5 c 25.456,23.622 50.122,48.122 74,73.5 -23.807,24.973 -48.14,49.473 -73,73.5 -24.86,-24.027 -49.193,-48.527 -73,-73.5 23.828,-24.661 47.828,-49.161 72,-73.5 z"
       id="path18" />
  </g>
  <g
     id="g24"
     transform="translate(-209.53815,-153.3144)">
    <path
       style="opacity:1"
       fill="#8e84fc"
       d="m 538.5,244.5 c 14.081,12.578 27.748,25.745 41,39.5 -13.181,13.347 -26.514,26.514 -40,39.5 -13.486,-12.986 -26.819,-26.153 -40,-39.5 13.202,-13.035 26.202,-26.202 39,-39.5 z"
       id="path22" />
  </g>
  <g
     id="g28"
     transform="translate(-209.53815,-153.3144)">
    <path
       style="opacity:1"
       fill="#fdfdfe"
       d="m 538.5,256.5 c 10.259,8.591 19.926,17.924 29,28 -9,9.667 -18.333,19 -28,28 -9.667,-9 -19,-18.333 -28,-28 9.021,-9.354 18.021,-18.687 27,-28 z"
       id="path26" />
  </g>
  <g
     id="g32"
     transform="translate(-209.53815,-153.3144)">
    <path
       style="opacity:1"
       fill="#b8b1fc"
       d="m 511.5,412.5 c 2.652,-0.09 4.985,0.576 7,2 -2.652,0.09 -4.985,-0.576 -7,-2 z"
       id="path30" />
  </g>
  <g
     id="g36"
     transform="translate(-209.53815,-153.3144)">
    <path
       style="opacity:1"
       fill="#8d83fc"
       d="m 240.5,453.5 c 10.704,-0.94 20.704,1.227 30,6.5 3.225,1.723 5.558,4.223 7,7.5 -2.343,3.499 -5.509,6.165 -9.5,8 -18.668,-14.446 -33.334,-11.113 -44,10 -2.094,22.569 8.073,33.402 30.5,32.5 5.047,-1.902 9.714,-4.402 14,-7.5 2.947,1.771 5.781,3.771 8.5,6 -0.088,3.142 -1.588,5.642 -4.5,7.5 -14.637,9.128 -29.637,9.795 -45,2 -13.895,-10.304 -19.728,-24.138 -17.5,-41.5 5.009,-15.508 15.175,-25.841 30.5,-31 z"
       id="path34" />
  </g>
  <g
     id="g40"
     transform="translate(-209.53815,-153.3144)">
    <path
       style="opacity:1"
       fill="#8e84fc"
       d="m 338.5,454.5 c 7.155,-0.347 10.321,2.986 9.5,10 -4.511,5.257 -8.844,5.257 -13,0 -1.244,-4.309 -0.077,-7.642 3.5,-10 z"
       id="path38" />
  </g>
  <g
     id="g44"
     transform="translate(-209.53815,-153.3144)">
    <path
       style="opacity:1"
       fill="#8d83fc"
       d="m 513.5,454.5 c 5.262,-0.305 10.428,0.029 15.5,1 7.667,16 15.333,32 23,48 2.322,-4.135 4.155,-8.468 5.5,-13 -5.366,-12.058 -10.699,-24.058 -16,-36 5.375,-0.328 10.708,0.005 16,1 2.552,5.833 5.385,11.5 8.5,17 2.452,-6.024 5.285,-11.857 8.5,-17.5 4.989,-0.499 9.989,-0.666 15,-0.5 -4.766,12.203 -10.099,24.203 -16,36 1.473,4.279 3.473,8.279 6,12 8.029,-15.393 15.529,-31.059 22.5,-47 5.407,-0.973 10.907,-1.307 16.5,-1 -11.861,25.392 -24.028,50.725 -36.5,76 -1.667,1.333 -3.333,1.333 -5,0 -3.306,-7.946 -7.139,-15.612 -11.5,-23 -3.818,7.636 -7.651,15.302 -11.5,23 -1.938,1.36 -3.604,1.027 -5,-1 -12.397,-24.791 -24.23,-49.791 -35.5,-75 z"
       id="path42" />
  </g>
  <g
     id="g48"
     transform="translate(-209.53815,-153.3144)">
    <path
       style="opacity:1"
       fill="#8f85fc"
       d="m 809.5,454.5 c 9.873,-0.308 12.54,3.859 8,12.5 -8.053,2.951 -11.887,0.118 -11.5,-8.5 1.376,-1.205 2.542,-2.538 3.5,-4 z"
       id="path46" />
  </g>
  <g
     id="g52"
     transform="translate(-209.53815,-153.3144)">
    <path
       style="opacity:1"
       fill="#8e83fc"
       d="m 435.5,468.5 c 1,0 2,0 3,0 0,5 0,10 0,15 3.35,-0.165 6.683,0.002 10,0.5 1.333,4 1.333,8 0,12 -3.317,0.498 -6.65,0.665 -10,0.5 -0.166,6.675 0,13.342 0.5,20 0.5,1.167 1.333,2 2.5,2.5 2.333,0.333 4.667,0.667 7,1 4.121,8.106 1.621,11.939 -7.5,11.5 -7.217,0.563 -12.217,-2.437 -15,-9 -0.5,-8.66 -0.666,-17.327 -0.5,-26 -2.357,0.163 -4.69,-0.003 -7,-0.5 -1.054,-1.388 -1.22,-2.888 -0.5,-4.5 6.433,-7.259 12.266,-14.926 17.5,-23 z"
       id="path50" />
  </g>
  <g
     id="g56"
     transform="translate(-209.53815,-153.3144)">
    <path
       style="opacity:1"
       fill="#9086fc"
       d="m 289.5,483.5 c 3.018,-0.165 6.018,0.002 9,0.5 1.803,0.637 3.136,1.803 4,3.5 5.451,-3.698 11.451,-4.864 18,-3.5 2.361,0.197 4.028,1.364 5,3.5 -1.806,2.972 -3.806,5.805 -6,8.5 -6.496,-1.95 -11.996,-0.45 -16.5,4.5 -0.179,10.244 -0.679,20.41 -1.5,30.5 -4.255,0.796 -8.421,0.629 -12.5,-0.5 -0.817,-15.741 -0.65,-31.408 0.5,-47 z"
       id="path54" />
  </g>
  <g
     id="g60"
     transform="translate(-209.53815,-153.3144)">
    <path
       style="opacity:1"
       fill="#9288fc"
       d="m 335.5,483.5 c 4.267,-0.297 8.434,0.036 12.5,1 0.824,15.574 0.657,31.074 -0.5,46.5 -3.333,0.667 -6.667,0.667 -10,0 -0.833,-0.833 -1.667,-1.667 -2.5,-2.5 -0.816,-15.074 -0.649,-30.074 0.5,-45 z"
       id="path58" />
  </g>
  <g
     id="g64"
     transform="translate(-209.53815,-153.3144)">
    <path
       style="opacity:1"
       fill="#8d83fc"
       d="m 361.5,483.5 c 3.682,-0.165 7.348,10e-4 11,0.5 1.146,0.645 2.146,1.478 3,2.5 13.075,-6.031 23.575,-3.031 31.5,9 5.908,15.903 1.408,27.737 -13.5,35.5 -6.151,1.079 -11.984,0.246 -17.5,-2.5 -0.333,9.333 -0.667,18.667 -1,28 -3.715,2.576 -7.882,3.576 -12.5,3 0.296,-25.359 -0.037,-50.692 -1,-76 z"
       id="path62" />
  </g>
  <g
     id="g68"
     transform="translate(-209.53815,-153.3144)">
    <path
       style="opacity:1"
       fill="#8e84fc"
       d="m 474.5,483.5 c 23.955,-1.549 34.122,9.451 30.5,33 -6.38,12.438 -16.547,17.271 -30.5,14.5 -13.459,-5.746 -18.959,-15.912 -16.5,-30.5 3.045,-8.21 8.545,-13.877 16.5,-17 z"
       id="path66" />
  </g>
  <g
     id="g72"
     transform="translate(-209.53815,-153.3144)">
    <path
       style="opacity:1"
       fill="#8e84fc"
       d="m 629.5,483.5 c 5.344,-0.166 10.677,10e-4 16,0.5 5.833,1.833 9.667,5.667 11.5,11.5 0.501,11.686 0.834,23.353 1,35 -5.131,2.032 -9.464,1.032 -13,-3 -6.627,3.851 -13.793,5.018 -21.5,3.5 -9.776,-5.856 -11.443,-13.523 -5,-23 7.844,-5.296 16.511,-8.129 26,-8.5 -0.578,-3.812 -2.911,-5.479 -7,-5 -5.213,0.553 -10.213,1.887 -15,4 -0.667,-0.333 -1.333,-0.667 -2,-1 -1.476,-2.915 -2.31,-5.915 -2.5,-9 3.723,-2.176 7.556,-3.843 11.5,-5 z"
       id="path70" />
  </g>
  <g
     id="g76"
     transform="translate(-209.53815,-153.3144)">
    <path
       style="opacity:1"
       fill="#8d83fc"
       d="m 670.5,483.5 c 3.018,-0.165 6.018,0.002 9,0.5 1.443,1.067 2.776,2.234 4,3.5 5.413,-3.792 11.413,-4.959 18,-3.5 1.978,0.481 3.311,1.647 4,3.5 -1.273,3.042 -2.939,5.876 -5,8.5 -3.984,-0.186 -7.984,-0.186 -12,0 -2.5,1.167 -4.333,3 -5.5,5.5 -0.5,9.994 -0.666,19.994 -0.5,30 -4.267,0.297 -8.434,-0.036 -12.5,-1 -0.817,-15.741 -0.65,-31.408 0.5,-47 z"
       id="path74" />
  </g>
  <g
     id="g80"
     transform="translate(-209.53815,-153.3144)">
    <path
       style="opacity:1"
       fill="#8e84fc"
       d="m 715.5,483.5 c 3.018,-0.165 6.018,0.002 9,0.5 1.5,0.833 2.667,2 3.5,3.5 1.579,-1.541 3.413,-2.708 5.5,-3.5 8.778,-1.898 16.612,-0.065 23.5,5.5 8.803,-6.527 18.303,-7.693 28.5,-3.5 3.956,2.962 6.789,6.796 8.5,11.5 0.5,11.328 0.667,22.662 0.5,34 -3.682,0.165 -7.348,-10e-4 -11,-0.5 -0.833,-0.833 -1.667,-1.667 -2.5,-2.5 -0.333,-10 -0.667,-20 -1,-30 -6.844,-5.646 -13.177,-4.979 -19,2 -0.704,10.356 -0.537,20.689 0.5,31 -3.682,0.165 -7.348,-10e-4 -11,-0.5 -0.833,-0.833 -1.667,-1.667 -2.5,-2.5 -0.333,-10 -0.667,-20 -1,-30 -6.875,-5.693 -13.209,-5.026 -19,2 -0.5,10.328 -0.666,20.661 -0.5,31 -4.267,0.297 -8.434,-0.036 -12.5,-1 -0.817,-15.741 -0.65,-31.408 0.5,-47 z"
       id="path78" />
  </g>
  <g
     id="g84"
     transform="translate(-209.53815,-153.3144)">
    <path
       style="opacity:1"
       fill="#8c82fc"
       d="m 806.5,483.5 c 4.267,-0.297 8.434,0.036 12.5,1 0.824,15.574 0.657,31.074 -0.5,46.5 -3,0.667 -6,0.667 -9,0 -1.167,-0.5 -2,-1.333 -2.5,-2.5 -0.5,-14.996 -0.667,-29.996 -0.5,-45 z"
       id="path82" />
  </g>
  <g
     id="g88"
     transform="translate(-209.53815,-153.3144)">
    <path
       style="opacity:1"
       fill="#8e84fc"
       d="m 842.5,483.5 c 8.149,-1.019 15.816,0.314 23,4 0.333,0.667 0.667,1.333 1,2 -1.273,3.042 -2.939,5.876 -5,8.5 -3.639,-0.212 -7.139,-1.045 -10.5,-2.5 -6.335,0.705 -6.835,2.539 -1.5,5.5 8.799,0.803 15.299,4.97 19.5,12.5 1.074,8.946 -2.759,14.779 -11.5,17.5 -7.186,1.055 -14.186,0.388 -21,-2 -1.881,-1.102 -3.548,-2.435 -5,-4 0.914,-3.683 2.914,-6.516 6,-8.5 3.877,0.927 7.71,1.927 11.5,3 4.801,-0.073 5.968,-1.907 3.5,-5.5 -7.939,-1.049 -14.439,-4.549 -19.5,-10.5 -3.02,-9.626 0.147,-16.293 9.5,-20 z"
       id="path86" />
  </g>
  <g
     id="g92"
     transform="translate(-209.53815,-153.3144)">
    <path
       style="opacity:1"
       fill="#fbfbfe"
       d="m 380.5,495.5 c 15.352,0.179 19.518,7.179 12.5,21 -5.298,3.533 -10.798,3.866 -16.5,1 -1.164,-6.307 -1.331,-12.641 -0.5,-19 1.652,-0.899 3.152,-1.899 4.5,-3 z"
       id="path90" />
  </g>
  <g
     id="g96"
     transform="translate(-209.53815,-153.3144)">
    <path
       style="opacity:1"
       fill="#fcfcfe"
       d="m 477.5,495.5 c 11.841,-0.994 17.007,4.339 15.5,16 -1.935,5.23 -5.768,7.897 -11.5,8 -9.461,-1.817 -12.961,-7.483 -10.5,-17 1.694,-2.858 3.861,-5.191 6.5,-7 z"
       id="path94" />
  </g>
  <g
     id="g100"
     transform="translate(-209.53815,-153.3144)">
    <path
       style="opacity:1"
       fill="#f8f7fe"
       d="m 641.5,510.5 c 1,0 2,0 3,0 0.163,2.357 -0.003,4.69 -0.5,7 -4.705,4.15 -9.705,4.817 -15,2 -0.667,-1.333 -0.667,-2.667 0,-4 3.998,-2.382 8.165,-4.048 12.5,-5 z"
       id="path98" />
  </g>
</svg>
